<?xml version="1.0" encoding="UTF-8" standalone="no"?>
<svg
   xmlns:dc="http://purl.org/dc/elements/1.1/"
   xmlns:cc="http://creativecommons.org/ns#"
   xmlns:rdf="http://www.w3.org/1999/02/22-rdf-syntax-ns#"
   xmlns:svg="http://www.w3.org/2000/svg"
   xmlns="http://www.w3.org/2000/svg"
   xmlns:sodipodi="http://sodipodi.sourceforge.net/DTD/sodipodi-0.dtd"
   xmlns:inkscape="http://www.inkscape.org/namespaces/inkscape"
   inkscape:version="1.0beta2 (2b71d25, 2019-12-03)"
   sodipodi:docname="cheetah-sil-black.svg"
   viewBox="0 0 899 220"
   height="220"
   width="899"
   id="svg94"
   version="1.1">
  <metadata
     id="metadata100">
    <rdf:RDF>
      <cc:Work
         rdf:about="">
        <dc:format>image/svg+xml</dc:format>
        <dc:type
           rdf:resource="http://purl.org/dc/dcmitype/StillImage" />
        <dc:title></dc:title>
      </cc:Work>
    </rdf:RDF>
  </metadata>
  <defs
     id="defs98" />
  <sodipodi:namedview
     inkscape:current-layer="g102"
     inkscape:window-maximized="0"
     inkscape:window-y="196"
     inkscape:window-x="0"
     inkscape:cy="123.78417"
     inkscape:cx="509.22358"
     inkscape:zoom="1.7277261"
     showgrid="false"
     id="namedview96"
     inkscape:window-height="829"
     inkscape:window-width="1544"
     inkscape:pageshadow="2"
     inkscape:pageopacity="0"
     guidetolerance="10"
     gridtolerance="10"
     objecttolerance="10"
     borderopacity="1"
     inkscape:document-rotation="0"
     bordercolor="#666666"
     pagecolor="#ffffff" />
  <g
     id="g102"
     inkscape:label="Image"
     inkscape:groupmode="layer">
    <path
       inkscape:connector-curvature="0"
       id="path4018"
       d="m 57.5,217.66919 c -6.582297,-1.71052 -17.442954,-6.52625 -20.169594,-8.9434 -1.193277,-1.05784 -2.69346,-3.18807 -3.33374,-4.73384 -2.491405,-6.01478 2.902371,-9.65224 18.503334,-12.47827 33.406404,-6.05141 70.74574,-27.79711 125.85514,-73.29554 8.72033,-7.19953 17.49533,-13.86864 19.5,-14.82026 5.8512,-2.77756 10.58672,-2.17796 22.14485,2.80394 18.32968,7.90065 18.49966,7.90737 26.853,1.06244 9.31737,-7.634893 17.147,-23.55211 17.147,-34.858954 0,-6.991703 -1.69082,-15.405307 -3.09589,-15.405307 -1.94943,0 -14.85209,5.340314 -20.90411,8.652057 -10.66348,5.835195 -24.89779,15.478062 -43.73262,29.62614 -24.86309,18.676314 -29.28967,21.515614 -41.76738,26.790474 -12.30444,5.2016 -39.41789,14.74377 -67.99999,23.93155 -10.45,3.35918 -21.025,7.27767 -23.5,8.70776 -2.475,1.43009 -11.025,9.00654 -19,16.83655 C 27.727749,187.52095 25.010302,189 11.929283,189 3.5218541,189 0.54522408,187.06024 0.69770978,181.68079 0.84675698,176.42265 5.9782372,169.97737 17.222532,160.92515 41.507059,141.37488 53.390249,135.58424 82.5,129.11566 c 7.15,-1.58882 16.817561,-4.29673 21.48347,-6.01757 24.55239,-9.05519 76.63256,-43.955454 107.03719,-71.728377 17.63743,-16.110799 30.27779,-25.25049 43.58691,-31.515781 13.29349,-6.257931 18.88575,-7.129457 40.89242,-6.372876 21.88844,0.752515 34.0907,2.206127 55.0475,6.557612 31.6829,6.578658 48.01043,10.833652 86.83093,22.628349 l 24.87844,7.558727 12.62156,-0.65939 c 19.51038,-1.019282 31.5148,-2.477488 41.73193,-5.069277 7.8326,-1.9869 11.37041,-3.626018 21.62705,-10.020112 6.74442,-4.204542 19.46259,-11.189462 28.26259,-15.522046 34.90842,-17.1867755 59.50841,-21.4508245 86,-14.9068435 7.52636,1.859169 11.70167,2.215281 25.5,2.174894 10.58888,-0.03099 19.72425,-0.626219 25.5,-1.661482 13.1566,-2.358228 30.34595,-2.204481 38.5,0.344358 11.56871,3.616211 31.0735,15.9687825 51.37439,32.5358855 5.43091,4.432048 10.96526,8.89922 12.29856,9.92705 2.34911,1.810917 10.32705,16.340177 10.32705,18.807417 0,0.671327 -1.1497,4.989879 -2.55489,9.596783 -1.76078,5.772695 -3.58186,9.496795 -5.85892,11.981501 -3.19332,3.484519 -3.51815,3.597923 -9.69511,3.384769 -9.2725,-0.319974 -17.88209,-2.098798 -21.89108,-4.522911 -3.27211,-1.978544 -4.76461,-2.106401 -22.92235,-1.963671 l -19.42236,0.15267 -19.87536,19.945551 c -19.59212,19.66129 -19.8576,19.98453 -18.62893,22.68118 1.78074,3.90829 8.92772,7.16335 23.13211,10.53541 18.5881,4.41274 32.85853,6.92153 59.71689,10.49843 l 24.5,3.26283 11.5,5.77108 c 31.46058,15.78796 44.2191,20.60912 59.5,22.48371 15.31322,1.87855 18.9825,2.85941 21.71366,5.80446 3.36011,3.62326 3.85599,6.26176 2.29145,12.19265 -3.67733,13.9401 -14.57406,21.02107 -32.3442,21.01807 -7.68984,-10e-4 -25.79169,-3.69348 -30.68931,-6.2596 -1.32616,-0.69485 -4.5623,-3.9579 -7.1914,-7.25123 -5.24489,-6.56997 -12.16161,-10.65916 -24.23215,-14.32615 -7.61547,-2.31355 -12.29676,-2.85159 -36.04805,-4.14319 -19.36038,-1.05282 -30.559,-2.84191 -37.74447,-6.03005 -8.21675,-3.64571 -17.60248,-4.9521 -43.05813,-5.99321 -30.71266,-1.25611 -48.25919,-4.09359 -54.05787,-8.74179 -4.81892,-3.86282 -9.00832,-10.97179 -12.55384,-21.30256 -1.59521,-4.64801 -3.00502,-8.58888 -3.13293,-8.75749 -0.1279,-0.16861 -2.61615,2.21374 -5.52943,5.29411 -6.83334,7.22525 -18.10028,12.93186 -29.92333,15.15592 -6.59035,1.23973 -12.20697,1.4739 -25,1.04234 -17.66135,-0.5958 -21.7875,-1.34552 -42,-7.63139 -20.31365,-6.31733 -33.20306,-9.61627 -56.5,-14.46073 -12.1,-2.51612 -26.07287,-5.70402 -31.05082,-7.08422 C 421.47122,127.12926 416.21819,126 414.77576,126 c -3.44053,0 -29.3429,10.0751 -38.27577,14.88791 -3.85,2.07429 -13.69285,8.58279 -21.87301,14.46334 -24.62828,17.7048 -33.6406,21.12997 -55.62699,21.14129 l -14.5,0.007 -11.5,-4.85844 c -6.325,-2.67214 -18.475,-8.40356 -27,-12.73648 -16.80067,-8.53912 -21.52701,-9.90386 -35,-10.1063 -15.48782,-0.23272 -23.47616,3.67406 -44.81778,21.91859 -18.2427,15.59532 -24.8755,20.71871 -33.35928,25.76777 -15.71639,9.35348 -30.61492,15.95963 -44.32293,19.65319 -9.1802,2.47356 -24.46735,3.22848 -31,1.53086 z"
       style="fill:#eeeeee" />
  </g>
</svg>
