<?xml version="1.0" encoding="UTF-8" standalone="no"?>
<svg
   xmlns:dc="http://purl.org/dc/elements/1.1/"
   xmlns:cc="http://creativecommons.org/ns#"
   xmlns:rdf="http://www.w3.org/1999/02/22-rdf-syntax-ns#"
   xmlns:svg="http://www.w3.org/2000/svg"
   xmlns="http://www.w3.org/2000/svg"
   xmlns:sodipodi="http://sodipodi.sourceforge.net/DTD/sodipodi-0.dtd"
   xmlns:inkscape="http://www.inkscape.org/namespaces/inkscape"
   inkscape:version="1.0beta2 (2b71d25, 2019-12-03)"
   sodipodi:docname="grass.svg"
   viewBox="0 0 1441.6238 226"
   height="226"
   width="1441.6238"
   id="svg22"
   version="1.1">
  <metadata
     id="metadata28">
    <rdf:RDF>
      <cc:Work
         rdf:about="">
        <dc:format>image/svg+xml</dc:format>
        <dc:type
           rdf:resource="http://purl.org/dc/dcmitype/StillImage" />
        <dc:title></dc:title>
      </cc:Work>
    </rdf:RDF>
  </metadata>
  <defs
     id="defs26" />
  <sodipodi:namedview
     inkscape:current-layer="g30"
     inkscape:window-maximized="0"
     inkscape:window-y="196"
     inkscape:window-x="0"
     inkscape:cy="-57.396345"
     inkscape:cx="718.68923"
     inkscape:zoom="0.94222075"
     fit-margin-bottom="0"
     fit-margin-right="0"
     fit-margin-left="0"
     fit-margin-top="0"
     showgrid="false"
     id="namedview24"
     inkscape:window-height="775"
     inkscape:window-width="1611"
     inkscape:pageshadow="2"
     inkscape:pageopacity="0"
     guidetolerance="10"
     gridtolerance="10"
     objecttolerance="10"
     borderopacity="1"
     inkscape:document-rotation="0"
     bordercolor="#666666"
     pagecolor="#ffffff" />
  <g
     transform="translate(-2.1226449,-7.4292569)"
     id="g30"
     inkscape:label="Image"
     inkscape:groupmode="layer">
    <g
       transform="translate(2.4130923,-3.9040761)"
       id="g108">
      <path
         inkscape:connector-curvature="0"
         id="path114"
         d="m 631.47221,146.30556 -0.80556,0.80554 0.10534,-2.55554 0.1052,-2.55556 0.70029,1.75 0.70029,1.75 -0.80554,0.80556 z"
         style="fill:#8c8c8c;fill-opacity:1;stroke-width:1.33333" />
      <path
         inkscape:connector-curvature="0"
         id="path112"
         d="m 630.83211,149.68889 -1.65678,1.64444 0.91038,-2.39084 0.91038,-2.39084 0.74639,0.7464 0.7464,0.74639 z M 104.88304,148.33333 104.21052,150 v -3.33334 -3.33333 l 0.67252,1.66667 0.67251,1.66666 z m 786.58917,-28.69444 -0.80556,0.80555 0.1052,-2.55555 0.1052,-2.55556 0.70029,1.75 0.70029,1.75 -0.80554,0.80556 z m 281.60359,-14.93694 -0.7464,0.74639 -0.9104,-2.39084 -0.9103,-2.39083 1.6567,1.64444 1.6568,1.64444 z m -464.19278,-5.701951 -0.67252,1.666671 v -3.333338 -3.333333 l 0.67252,1.666666 0.67252,1.666667 z m -402.66665,-2.666667 -0.67252,1.666667 v -3.333334 -3.333333 l 0.67252,1.666667 0.67252,1.666666 z m -58.74415,-3.361111 -0.80556,0.805555 0.1052,-2.555555 0.1052,-2.555556 0.70029,1.75 0.7003,1.75 -0.80555,0.805556 z m 725.33332,-1.333333 -0.80556,0.805555 0.1052,-2.555555 0.1052,-2.555556 0.70029,1.75 0.70029,1.75 -0.80554,0.805556 z m 145.33336,0 -0.8056,0.805555 0.1052,-2.555555 0.1052,-2.555556 0.7003,1.75 0.7003,1.75 -0.8056,0.805556 z M 10.216374,89.666665 9.5438594,91.333332 v -3.333333 -3.333334 l 0.6725146,1.666667 0.672515,1.666667 z m 1357.333326,-1.333333 -0.6725,1.666667 v -3.333334 -3.333333 l 0.6725,1.666667 0.6725,1.666666 z m -373.99179,-1.357933 -1.40873,1.408734 0.82574,-3.15768 0.82576,-3.157679 0.58298,1.748945 0.58298,1.748946 z m -712.75236,-0.669844 -0.80556,0.805554 0.1052,-2.555554 0.1052,-2.555556 0.7003,1.75 0.70029,1.75 -0.80555,0.805556 z m 177.33333,0 -0.80556,0.805554 0.10534,-2.555554 0.1052,-2.555556 0.70029,1.75 0.70029,1.75 -0.80554,0.805556 z m -15.92252,-7.305556 -0.67252,1.666667 v -3.333334 -3.333333 l 0.67252,1.666667 0.67252,1.666666 z m 330.58918,-4.694444 -0.80556,0.805555 0.1052,-2.555555 0.1052,-2.555556 0.7003,1.75 0.70029,1.75 -0.80555,0.805556 z m -217.33333,-1.333333 -0.80556,0.805554 0.10534,-2.555554 0.1052,-2.555556 0.70029,1.75 0.70029,1.75 -0.80554,0.805556 z m -422.66666,-8 -0.80555,0.805554 0.10526,-2.555554 0.10526,-2.555556 0.7003,1.75 0.70028,1.75 z m 174.66667,0 -0.80556,0.805554 0.1052,-2.555554 0.1052,-2.555556 0.70029,1.75 0.7003,1.75 -0.80555,0.805556 z M 1396.8056,62.305555 1396,63.11111 l 0.1053,-2.555555 0.1053,-2.555556 0.7003,1.75 0.7003,1.75 -0.8055,0.805556 z M 72.88304,54.999999 72.210525,56.666666 v -3.333333 -3.333334 l 0.672515,1.666667 0.672514,1.666667 z m 451.99999,0 -0.67252,1.666667 v -3.333333 -3.333334 l 0.67252,1.666667 0.67252,1.666667 z m -230.74414,-2.027777 -0.80556,0.805555 0.1052,-2.555555 0.1052,-2.555556 0.70029,1.75 0.70029,1.75 -0.80554,0.805556 z m 871.19441,-1.638889 -1.1459,2.666666 -0.073,-2 -0.073,-2 1.2926,-2 1.2925,-2 -0.073,1.333334 -0.073,1.333333 z m -831.19441,-5.027778 -0.80556,0.805555 0.1052,-2.555555 0.1052,-2.555556 0.70029,1.75 0.70029,1.75 -0.80554,0.805556 z m 451.99999,0 -0.80556,0.805555 0.1052,-2.555555 0.1052,-2.555556 0.70029,1.75 0.70029,1.75 -0.80554,0.805556 z m 225.33332,0 -0.8056,0.805555 0.1052,-2.555555 0.1052,-2.555556 0.7003,1.75 0.7003,1.75 -0.8055,0.805556 z m -758.59762,-1.946846 -0.66407,1.64129 0.0495,-4 0.0493,-4 0.61466,2.35871 0.61465,2.358709 -0.66405,1.641291 z m 437.2643,-3.386487 -0.80556,0.805555 0.1052,-2.555555 0.1052,-2.555556 0.70029,1.75 0.70029,1.75 -0.80554,0.805556 z m 681.33332,-1.333333 -0.8056,0.805554 0.1054,-2.555554 0.1053,-2.555556 0.7003,1.75 0.7002,1.75 -0.8054,0.805556 z M 1331.5497,35 l -0.6725,1.666666 V 33.333333 30 l 0.6725,1.666666 0.6725,1.666667 z M 216.80555,32.972222 216,33.777777 l 0.1052,-2.555555 0.10519,-2.555556 0.7003,1.75 0.70029,1.75 -0.80555,0.805556 z M 741.49877,24.355556 739.842,26 l 0.91037,-2.390838 0.91039,-2.390837 0.74638,0.746393 0.7464,0.746392 z"
         style="fill:#eeeeee;fill-opacity:1;stroke-width:1.33333" />
      <path
         inkscape:connector-curvature="0"
         id="path110"
         d="M 720.52142,237.33333 H -0.29044743 L 0.62690611,187.66666 1.5442597,138 1.7721298,122 2,106 1.1321692,97.333332 0.26433841,88.666665 2.2134459,95.333332 4.1625534,102 4.9488622,104 5.7351709,106 7.3846273,98.666665 9.0340835,91.333332 9.1837083,103.65 9.3333331,115.96666 12.666666,128.79597 16,141.62526 v 2.52071 2.52069 h 1.243482 1.243484 l 0.945212,-2.9781 0.945214,-2.9781 1.360262,3.31143 1.360261,3.31144 1.018878,-6 1.018878,-6 0.08,-18 0.08,-17.999998 -1.288249,-22.666666 -1.288249,-22.666667 -0.677928,-7.333333 -0.677928,-7.333333 1.891345,7.333333 1.891345,7.333333 2.360363,15 2.360368,15 h 1.066631 1.06663 V 80.80891 77.617819 l 3.977868,-15.808909 3.977868,-15.808911 2.867603,-7.710085 2.867602,-7.710084 0.479142,0.47914 0.47914,0.479142 -2.56949,11.89761 -2.569489,11.897611 -1.400799,13.333333 -1.400798,13.333333 -0.354324,7.668484 -0.354323,7.668485 1,-0.0018 1,-0.0018 V 95.11704 92.900747 l 4.592668,-13.450373 4.592667,-13.450375 3.312478,-15.333333 3.312477,-15.333333 4.076035,-12 4.076036,-12 -0.68624,4 -0.68624,4 -2.537587,14 -2.537586,14 -1.34585,15.999999 -1.345849,16 L 53.953915,100.66667 53.084821,122 l 1.086082,-1.07294 1.086081,-1.07294 3.164628,-8.26039 3.164627,-8.2604 3.088829,-15.999998 3.088829,-16 2.084015,-8 2.084014,-7.999999 -0.662669,10.666666 -0.662669,10.666667 -0.629454,21.333333 -0.629454,21.333331 3.326394,-19.999998 3.326395,-20 0.648945,-1.333333 0.648947,-1.333333 -0.627588,11.999999 -0.627587,12.000005 -0.841998,24.78237 -0.841999,24.78238 0.975497,4.44142 0.975498,4.4414 1.377302,-2.46111 1.377303,-2.46109 0.932934,-14.09603 L 80.930659,126 l 0.201336,3.26666 0.201336,3.26667 1.650294,-1.65029 1.650293,-1.6503 0.722941,-16.9497 0.722943,-16.949708 1.120727,6.394928 1.120725,6.39493 0.799144,-0.79915 0.799143,-0.79914 3.005642,-11.595784 3.005643,-11.595784 -0.615714,5.333333 -0.615714,5.333334 -0.869327,16.017001 -0.869325,16.01701 1.047534,10.64965 1.047536,10.64967 L 99.156179,132 l 4.100361,-15.33333 -0.001,-11.33334 -10e-4,-11.333331 -0.86466,-6.666667 -0.86466,-6.666666 0.68478,1.674974 0.68478,1.674973 1.21946,-0.753662 1.21945,-0.753664 0.0761,3.078689 0.0761,3.078689 5.11752,20.000005 5.11751,19.99999 0.12831,-25.33333 0.12831,-25.333331 -1.34526,-15.198901 -1.34524,-15.198901 0.50775,-0.507751 0.50775,-0.507751 2.87259,13.706652 2.8726,13.706652 2.66416,18.527493 2.66416,18.527498 2.57413,10.13917 2.57413,10.13917 2.22919,13.33333 2.22919,13.33334 1.25583,2 1.25584,2 -0.80291,-14 -0.80289,-14 -0.66939,-7.33334 -0.6694,-7.33333 2.06488,4 2.06489,4 -0.73661,-16.98498 -0.73661,-16.984974 -1.93632,-12.89885 -1.93632,-12.89885 0.094,-1.449505 0.094,-1.449505 1.85281,5.047822 1.85282,5.047823 3.30094,16.28551 3.30095,16.285509 1.5836,13 1.58359,13 h 1.16869 1.16871 v 3.25464 3.25465 l 1.22588,0.75763 1.22588,0.75764 1.57366,-4.76828 1.57368,-4.76828 0.69607,0.69606 0.69607,0.69607 -1.56423,8.39327 -1.56421,8.39327 2.58706,10.66666 2.58706,10.66667 1.30297,-3.33333 1.30297,-3.33334 0.96367,-8 0.96368,-8 2.51647,-12.32573 2.51645,-12.32572 -1.27324,-10.04234 -1.27324,-10.04233 -1.48519,-2.77508 -1.48517,-2.775087 1.25221,-1.252208 1.2522,-1.252208 4.22144,11.728683 4.22146,11.72869 1.20345,1.89573 1.20347,1.89574 1.47226,-5.89573 1.47227,-5.89574 L 181.54456,101 184.37064,90.666665 h 0.63278 0.6328 l -0.92626,6.176782 -0.92627,6.176783 -1.09256,10.82322 -1.09256,10.82321 1.15348,0.71614 1.15348,0.71613 -1.44775,8.73691 -1.44776,8.7369 2.31614,12.86355 2.31613,12.86353 1.17891,-0.7286 1.1789,-0.7286 v 2.66667 2.66667 l 1.33334,0.82404 1.33333,0.82404 -0.0361,-14.41202 L 190.5945,146 l -1.22133,-12.63143 -1.22132,-12.63144 0.47112,-0.47112 0.47112,-0.47112 2.93177,13.10255 2.93179,13.10256 0.96761,4 0.96762,4 2.1216,-7.33334 2.12161,-7.33333 3.53171,-32 3.5317,-31.999998 3.35138,-19.999999 3.35138,-20 0.73403,-0.666667 L 216.37033,34 l -0.83661,9.403226 -0.83662,9.403227 -0.89909,21.809733 -0.89909,21.809734 1.76061,-1.088123 1.76062,-1.088124 -0.91085,3.208496 -0.91084,3.208501 -0.60757,6.66666 -0.60757,6.66667 2.58706,-10 2.58707,-10.000001 0.0547,-3.4 0.0547,-3.4 1.14708,-1.266667 1.14709,-1.266667 2.43875,-6.969718 2.43876,-6.969719 0.35743,0.357431 0.35742,0.357429 -2.40368,11.872663 -2.40369,11.872664 3.04501,11.967285 3.04503,11.96729 1.55055,9.19274 1.55056,9.19273 0.46513,-0.46513 0.46515,-0.46513 2.79316,-18.62194 2.79316,-18.621928 1.13673,-4.666667 1.13673,-4.666666 0.2516,16.000001 0.2516,16 3.09783,-14.66667 3.09781,-14.666665 L 245.84335,112 l -0.58264,19.33333 -0.61812,7.33333 -0.61812,7.33334 1.10151,-2 1.10151,-2 1.67042,-16 1.67044,-16 2.65711,-16.000001 2.65709,-16 -0.70269,-16.666667 -0.70271,-16.666666 2.49003,11.384308 2.49003,11.384309 2.8218,19.949024 2.8218,19.949023 0.72362,3.32631 0.72362,3.32631 3.95986,-9.28236 3.95986,-9.282359 0.56706,-0.567059 0.56706,-0.56706 -0.67355,9.189778 -0.67368,9.18978 -0.5696,6.37634 -0.56961,6.37635 1.2756,-0.78837 1.27561,-0.78837 0.1378,14.41202 0.1378,14.41202 1.10773,-4.66666 1.10774,-4.66667 2.75842,-18.66667 2.75843,-18.66666 -0.60069,-9.333335 -0.60068,-9.333333 0.68945,3 0.68947,3 h 1.04889 1.04891 L 285.83945,82.667128 286.72898,72.000926 284.61765,53.667129 282.50631,35.333333 280.05175,24 l -2.45454,-11.333334 0.43729,-0.458125 0.43729,-0.458125 3.33986,10.572474 3.33984,10.572475 2.9082,12.387314 2.90818,12.387316 1.21718,-1.834997 1.21718,-1.834999 -0.27329,7.333333 -0.27328,7.333334 1.03641,8.333333 1.03642,8.333333 h 1.35376 1.35374 l -0.65313,4.333333 -0.65312,4.333334 1.21709,8.666671 1.2171,8.66666 0.12053,5.66667 0.12053,5.66666 h 0.97135 0.97136 l 1.50233,-4.33333 1.50235,-4.33333 -0.44181,5.33333 -0.44182,5.33333 1.74894,4 1.74894,4 -0.10346,-17.06864 -0.10347,-17.06864 0.6456,-0.645596 0.64559,-0.645596 2.34006,12.047572 2.34007,12.04757 h 0.69185 0.69187 l -0.91223,-13.66666 -0.91222,-13.666671 -2.02142,-13.812519 -2.02142,-13.812518 0.5808,-0.580788 0.58078,-0.580787 2.77258,10.393305 2.77258,10.393307 2.23391,12.377978 2.23391,12.377983 0.53152,-0.53152 0.53152,-0.53152 3.11746,-12.895241 3.11747,-12.895246 0.68693,-0.686936 0.68695,-0.686935 4.30603,10.402385 4.30602,10.402383 0.69842,0.66667 0.69841,0.66667 -0.88093,-21.333338 -0.88094,-21.333333 -0.63106,-7.333333 -0.63106,-7.333333 1.91696,6.572681 1.91698,6.572682 2.71941,16.093984 2.71943,16.093985 2.04746,16.000005 2.04746,15.99999 2.49064,25.06934 2.49065,25.06932 0.70959,0.7096 0.7096,0.70958 0.95961,-7.6805 0.95961,-7.68051 -0.82038,-11.43175 -0.8204,-11.43174 -0.67362,-6.66667 -0.67361,-6.66667 3.05416,9.2883 3.05416,9.2883 0.74845,-1.2883 0.74844,-1.2883 1.70901,-5.29449 1.70902,-5.2945 -0.27766,-8.5768 -0.27766,-8.57681 -1.78986,-5.19511 -1.78986,-5.19511 0.93833,-3.508583 0.93835,-3.50858 2.87032,9.241663 2.87032,9.24166 1.57169,6.41991 1.57168,6.41991 1.06443,-1.08658 1.06444,-1.08658 0.60894,-5.33333 0.60895,-5.33333 3.56232,-11.97134 3.56232,-11.971345 0.76649,-0.695324 0.76648,-0.695326 -0.82056,4 -0.82057,4 -1.6306,16.996815 -1.6306,16.99682 3.02868,13.66984 3.02868,13.66986 4.04179,8.66666 4.0418,8.66667 1.33234,-3.33333 1.33235,-3.33334 -0.64709,-16 -0.6471,-16 0.6059,3 0.6059,3 h 1.04488 1.04487 l -0.65932,-6.86178 -0.65933,-6.86179 1.3533,0.8364 1.35332,0.83639 0.90694,-6.97461 0.90694,-6.9746 2.66354,-12.94404 2.66353,-12.944038 3.28396,-9.055964 3.28397,-9.055962 -0.74422,4.666666 -0.74423,4.666667 -1.95827,12.666666 -1.95826,12.666665 -0.8556,27.46104 -0.8556,27.46103 1.53872,0.95098 1.53873,0.95099 v -3.40711 -3.40712 l 3.21397,-15.0049 3.21399,-15.00491 1.48335,-3.33333 1.48336,-3.33334 -0.67491,3.4761 -0.67491,3.4761 -0.8711,11.33272 -0.8711,11.33274 1.26534,0.78201 1.26533,0.78201 3.04275,-30.2575 3.04296,-30.257508 3.24998,-22 3.24999,-21.999999 1.93052,-8 1.93051,-8 -0.6579,6 -0.65789,6 -0.62551,27.999999 -0.62552,28 1.24356,-3.333333 1.24356,-3.333334 -0.67029,14.000005 -0.67028,13.99999 1.39108,-2.19302 1.39109,-2.19303 3.01227,-18.473637 3.01227,-18.473641 0.80561,9.333333 0.80561,9.333334 -1.13894,3.991201 -1.13895,3.99119 0.13187,28.00881 0.13186,28.0088 0.95488,7.33333 0.95487,7.33333 1.17733,-4 1.17732,-4 0.0693,-22.99966 0.0692,-22.99966 0.21009,-3.4e-4 0.21009,-3.4e-4 2.21464,13 2.21464,13 1.07015,2.66667 1.07015,2.66667 1.01372,-13.22279 1.0137,-13.22278 -0.90293,-13.44388 -0.90295,-13.44388 -0.61532,-5.333338 -0.61533,-5.333333 1.27119,3.333333 1.27118,3.333333 1.61286,6.000005 1.61286,6 0.99272,-3.33334 0.99272,-3.33333 0.13294,-7.078691 0.13288,-7.078689 1.33333,0.824045 1.33333,0.824046 v 3.47876 3.47876 l 1.46928,8.437219 1.46928,8.43722 1.19739,-0.74002 1.19739,-0.74003 0.0204,-4.92131 0.0204,-4.92131 1.06261,1.67369 1.06261,1.6737 2.19568,-4.60441 2.1957,-4.604401 -0.58872,-7.069291 -0.58874,-7.069289 1.15546,4.400994 1.15544,4.400995 1.00656,0.932339 1.00654,0.932338 -0.8744,-20.666666 -0.8744,-20.666666 -0.61866,-6 -0.61866,-6 2.53476,11.333333 2.53478,11.333333 1.66105,11.045249 1.66105,11.045248 0.86387,-1.045248 0.86387,-1.045249 3.07193,-14 3.07193,-14 0.30806,-1.333333 0.30806,-1.333333 0.76459,-2 0.76459,-2 2.12316,-6.666667 2.1232,-6.666666 1.4081,-2 1.40812,-2 -0.67188,4 -0.67188,3.999999 -2.20572,9.77506 -2.20572,9.77506 3.463,12.22494 3.46302,12.22494 2.51541,13.333333 2.5154,13.333338 0.88641,6.33333 0.88641,6.33333 h 1.25163 1.25168 V 105.3737 89.414061 l -2.09356,-14.373697 -2.09356,-14.373698 -1.98117,-7.814164 -1.98116,-7.814164 0.64396,-0.643961 0.64396,-0.643962 3.28025,10.458126 3.28025,10.458125 3.04392,13.269929 3.04392,13.26993 0.98494,-2.603264 0.98493,-2.603262 2.99676,-15.013792 2.99676,-15.01379 0.54667,0.546668 0.54666,0.546666 -1.42177,20.23986 -1.42176,20.23986 v 17.074179 17.07419 l 1.90033,4.48641 1.90035,4.48641 0.67532,-2 0.67533,-2 1.94619,-8.66666 1.9462,-8.66667 -0.56612,18 -0.56613,18 2.63644,-6 2.63642,-6 0.0745,-8.14724 0.0745,-8.14723 -0.88573,-6.46212 -0.88574,-6.46211 -1.14162,2.60935 -1.14164,2.60935 0.67582,-3.33333 0.67583,-3.33333 0.1268,-2.66667 0.1268,-2.66667 2.4496,8 2.4496,8 0.26692,-14 0.26693,-13.999998 1.71362,6.666668 1.71361,6.66667 0.2242,-0.66667 0.2242,-0.66667 3.09381,-11.999998 3.09382,-12 -0.85668,10.666667 -0.8567,10.666671 9e-4,21.33333 8.9e-4,21.33333 1.84852,10.29908 1.84853,10.29907 0.92642,-0.57255 0.92641,-0.57256 1.76021,-11.31509 1.7602,-11.3151 -0.78388,-11.74476 -0.78386,-11.74476 1.77469,5.33334 1.77469,5.33333 0.13982,-16.67547 0.13961,-16.675467 -1.33564,-4.657096 -1.33564,-4.657096 1.00231,-0.332082 1.0023,-0.332082 -0.25325,-7.668686 -0.25324,-7.668685 3.1724,15.999999 3.1724,16.000005 2.99152,15.99999 2.99151,16 1.12601,2 1.12601,2 -0.78642,-8 -0.78643,-8 -0.57983,-4 -0.57984,-3.99999 2.00716,5.23313 2.00718,5.23315 0.6271,0.6271 0.6271,0.62711 1.30372,-3.19358 1.3037,-3.19358 -0.61885,8 -0.61885,8 0.6403,-1.33334 0.6403,-1.33333 1.1603,-7.61566 1.16031,-7.61566 -1.12349,0.69435 -1.12348,0.69435 v -0.83301 -0.83301 l 1.47229,-2.751 1.47228,-2.751 3.19893,-14.16134 3.19894,-14.161351 2.13129,-6.419711 2.13129,-6.419709 0.442,0.441996 0.44199,0.441997 -2.58175,14.64438 -2.58173,14.644378 -0.77187,28 -0.77185,28 1.97727,6 1.97726,6 0.27462,-8.66667 0.27461,-8.66666 1.29275,5.78669 1.29274,5.78668 0.63172,-0.63172 0.63172,-0.63172 2.51646,-17.82163 2.51645,-17.82164 2.8072,-12.93051 2.80721,-12.93052 2.61928,-7.069483 2.6193,-7.069482 -0.67315,4.666667 -0.67315,4.666667 L 605.37821,108 l -1.29589,10 0.13,22 0.13,22 1.12331,-7.33334 1.1233,-7.33333 3.46575,-28.77546 3.46576,-28.775453 1.77892,-7.224542 1.77892,-7.224543 -0.75001,9.875695 -0.75002,9.875696 1.54423,-0.954386 1.54423,-0.954384 v 3.391876 3.391875 l 3.40601,11.686816 3.406,11.68681 2.3614,13.91569 2.3614,13.9157 0.85556,-1.38435 0.85557,-1.38433 -1.01882,-11.62004 -1.01883,-11.62004 0.91632,-0.56631 0.91632,-0.56632 0.86451,4.60823 0.8645,4.60823 1.2817,0.79213 1.28164,0.79212 -0.0691,-4.41202 -0.0691,-4.41202 -3.00177,-11.66667 -3.00178,-11.66666 h 0.44131 0.44131 l 5.29622,11.25194 5.29623,11.25194 0.0204,3.08139 0.0204,3.08139 1.13957,1.79822 1.13958,1.79821 1.68628,-15.65462 1.68628,-15.65461 -0.66966,-10.143601 -0.66966,-10.143597 0.58278,3 0.58279,3 h 1.2406 1.2406 v -6.07624 -6.07624 l 1.25334,-5.590426 1.25335,-5.590427 2.96823,-17.000644 2.96824,-17.000643 0.48697,0.486982 0.48699,0.486984 -1.34498,14.51366 -1.34497,14.513661 -0.17552,25.333333 -0.17552,25.333338 1.34505,3.33333 1.34506,3.33333 0.65652,-2 0.6565,-2 3.63555,-10.39704 3.63553,-10.397049 0.48851,0.488495 0.48849,0.488496 -1.56606,7.466228 -1.56606,7.46622 1.40812,3.10899 1.40814,3.109 2.38978,-5.33334 2.38979,-5.33333 -0.19107,-7.333335 -0.19105,-7.333333 1.22059,1.93046 1.22058,1.93046 0.85923,-3.423403 0.85921,-3.423404 -2.13356,-12.363327 -2.13356,-12.363327 0.53704,-0.537036 0.53704,-0.537035 2.79059,10.393306 2.79059,10.393306 1.89281,9.333333 1.89281,9.333335 0.88563,6.66667 0.88561,6.66666 4.16872,11.83357 4.16872,11.83356 1.19935,-3.16689 1.19935,-3.16691 -1.44558,-35.999995 -1.44556,-35.999999 -0.64234,-9.333333 -0.64235,-9.333334 2.68127,12 2.68126,12 3.73306,25.914873 3.73305,25.914878 0.74631,-1.24821 0.74632,-1.24821 1.05969,-7.33333 1.05968,-7.33333 0.96421,5.33333 0.96422,5.33333 -0.62263,22.96739 -0.62263,22.9674 1.3773,2.36593 1.37728,2.36595 0.0609,-12 0.0609,-12 1.4068,2 1.4068,2 -0.67584,-34 -0.67593,-34.000001 -2.16336,-14 -2.16336,-14 -1.99599,-7.814164 -1.99597,-7.814163 0.55111,-0.551096 0.55109,-0.551096 2.99355,8.210107 2.99356,8.210108 3.72773,14.821819 3.72773,14.821818 1.6574,10.367167 1.65739,10.367165 0.56331,-0.563301 0.5633,-0.563302 5.14891,-23.803865 5.14892,-23.803863 3.53016,-11.124792 3.53016,-11.124792 0.70212,0.702123 0.70212,0.702122 -1.45197,4.42267 -1.45199,4.422669 -2.63225,17.333333 -2.63227,17.333333 -1.3688,19.333333 -1.36879,19.333338 -0.0133,12.8139 -0.0133,12.81391 0.88573,6.4621 0.88573,6.46211 0.95343,-2.60935 0.95344,-2.60934 -0.478,12 -0.47801,12 1.37976,-5.33334 1.37974,-5.33333 -0.70757,-3.66667 L 734.73302,148 h 1.36622 1.3662 l -0.78788,-8.33334 -0.78788,-8.33333 -0.66667,-6 -0.66667,-6 1.4834,2 1.4834,2 -0.7238,-6.66666 -0.72381,-6.66667 1.40105,4 1.40106,4 0.7385,2 0.73852,2 4.41498,-25.333335 4.41498,-25.333333 2.7044,-10.666666 2.70442,-10.666667 -0.64276,6 -0.64276,6 -1.30102,19.333333 -1.301,19.333338 -0.0197,17.44444 -0.0197,17.44445 1,1.00154 1,1.00155 2.21953,-7.11266 2.21953,-7.11266 -0.48897,12 -0.48897,12 1.2236,-8 1.2236,-8 0.72105,-7.33333 0.72104,-7.33333 2.57821,-11.83115 2.57823,-11.831145 2.92715,-9.502188 2.92714,-9.502188 0.53484,1.479587 0.53486,1.479586 -1.24036,5.520414 -1.24036,5.520413 h 1.19161 1.1916 v 4.417212 4.417212 l 4,3.832247 4,3.83224 0.15593,-6.58279 0.15595,-6.582788 2.59376,11.333338 2.59377,11.33333 0.77576,3.33333 0.77576,3.33333 1.26607,-5.33333 1.26605,-5.33333 -0.79426,-23.333335 -0.79427,-23.333333 -0.65741,-7.999999 -0.65743,-8 1.90752,6.537869 1.90753,6.537869 1.50551,9.462131 1.50549,9.46213 0.79076,2 0.79076,2 -0.32173,2 -0.32172,2 1.33186,-1.333333 1.33187,-1.333334 0.67145,-3.333333 0.67147,-3.333333 -0.71315,11.629214 -0.71313,11.629217 1.55579,13.70412 1.5558,13.70411 0.75156,3.33334 0.75156,3.33333 1.08685,-2.66667 1.08684,-2.66666 0.0937,-3.68476 0.0937,-3.68476 1.32581,-2.31524 1.32581,-2.31524 2.8044,-7.75867 2.80442,-7.75867 0.6192,0.6192 0.6192,0.6192 -2.08275,10.08326 -2.08276,10.08326 v 4.32287 4.32288 l 1.22043,-1.26667 L 811.774,130 l 0.44622,-3.2289 0.44624,-3.22889 1.79615,-0.59204 1.79613,-0.59204 -1.4628,2.73328 -1.46281,2.73328 v 8.67563 8.67564 l 1.18159,0.73025 1.18158,0.73027 0.9357,-7.65158 0.93568,-7.65157 4.06697,-17.33333 4.06697,-17.333335 -0.10533,-9.333333 -0.10533,-9.333333 1.44729,4.333333 1.44729,4.333333 h 1.21915 1.21913 l -0.83088,1.344411 -0.83089,1.344411 2.03053,10.322256 2.03054,10.322257 2.00108,14.66666 2.00109,14.66667 0.8912,7.80263 0.8912,7.80262 1.14229,-1.80262 1.1423,-1.80263 -0.0157,-10 -0.0157,-10 -1.19485,-12 -1.19486,-12 -0.83565,-6 -0.83565,-5.999998 2.09386,4.551188 2.09387,4.55119 2.76847,10.78214 2.76845,10.78215 2.53764,14.49457 2.53764,14.49457 v 3.25079 3.25077 l 1.33333,-0.82404 1.33334,-0.82404 0.18921,-2.92132 0.1892,-2.9213 0.89812,5.33333 0.89811,5.33333 1.7219,-4 1.72192,-4 L 859.52554,124 l -0.75932,-32.666668 -2.62775,-14.64438 -2.62774,-14.64438 0.45448,-0.454489 0.45449,-0.454488 2.07131,7.125045 2.0713,7.125047 1.99994,8.640489 1.99992,8.640489 2.07666,12.929055 2.07666,12.92905 2.44872,5.73761 2.4487,5.73762 3.67868,-12 3.67868,-12 2.40528,-19.333335 2.4053,-19.333333 2.98042,-17.017911 2.98043,-17.017911 0.54915,0.549154 0.54916,0.549154 -1.3808,17.802091 -1.38079,17.80209 0.11333,28.666666 0.11334,28.666665 1.16022,-3.33333 1.16024,-3.33334 -0.67292,12.99648 -0.67292,12.99648 2.08323,12.33686 2.08323,12.33685 1.04217,5.33333 1.04219,5.33334 0.94181,-10.66667 0.94181,-10.66667 1.42815,-15.61458 1.42815,-15.61458 -1.51786,-18.22516 -1.51784,-18.225155 0.59704,-0.597042 0.59704,-0.597043 1.6779,7.49764 1.6779,7.49764 0.92966,0.57456 0.92964,0.57455 1.60813,-9.968745 1.60813,-9.968746 h 0.52624 0.52623 l -0.83925,17.545591 -0.83926,17.54558 1.37723,-0.85117 1.37724,-0.85118 0.89893,-4.36108 0.89894,-4.36107 1.3786,2.40314 1.3786,2.40314 -1.6091,1.93885 -1.6091,1.93885 -0.16288,12.32467 -0.16263,12.32468 1.21817,2.66666 1.21819,2.66667 0.28181,1 0.28183,1 0.16667,2.93333 0.16666,2.93334 1.34827,-1.34827 1.34825,-1.34825 -1.26829,-17.88727 -1.26829,-17.88726 0.34702,-0.34702 0.34703,-0.34702 2.35511,9.98988 2.35512,9.98989 1.035,-0.63966 1.03498,-0.63966 1.68291,-6.01074 1.68291,-6.01074 -1.53203,-35.023609 -1.53204,-35.023605 -0.59307,-8 -0.59306,-8 3.12308,15.333333 3.12308,15.333333 0.99776,6.666667 0.99776,6.666666 1.02277,-2.666666 1.02277,-2.666667 4.18916,-17.655204 4.18916,-17.655203 2.82099,-7.371686 2.82098,-7.371685 0.54606,0.546059 0.54606,0.546059 -1.9971,7.814163 -1.9971,7.814164 -2.1341,14.551484 -2.13411,14.551483 -0.7528,22.115183 -0.75281,22.115181 1.9517,-2.66666 1.95171,-2.66667 1.73124,-9.33333 1.73125,-9.333338 3.77446,-11.333333 3.77445,-11.333333 -0.70749,4.666666 -0.70748,4.666667 -1.87954,12.666666 -1.87953,12.666665 -0.27404,9.65697 -0.27404,9.65696 3.21295,14.00898 3.21293,14.00897 0.88624,7.3e-4 0.88624,7.2e-4 0.89865,-9.66666 0.89864,-9.66667 -0.73541,-32 -0.7354,-31.999998 -0.098,-3.333333 -0.0979,-3.333333 -1.98454,-16 -1.98456,-16 -1.20712,-4 -1.20712,-4 -0.79947,-6 -0.79948,-6 1.98936,4.366898 1.98935,4.366897 4.54969,18.299769 4.54971,18.299769 1.67397,11.333333 1.67397,11.333334 0.92678,1.750994 0.92677,1.750993 3.06721,-14.805805 3.06723,-14.805805 0.54671,0.546715 0.54672,0.546716 -1.3185,17.174762 -1.3185,17.174763 0.11813,7.333333 0.11813,7.333338 1.41704,-6.000005 1.41703,-6 0.79112,4.666667 0.79112,4.666668 3.20647,6.66667 3.20645,6.66666 1.76189,-11.33333 1.76188,-11.333335 1.88927,-8.666666 1.88927,-8.666667 -0.75115,10.198171 -0.75113,10.198169 0.93834,6.257368 0.93835,6.25736 0.65452,-0.65451 0.65451,-0.65452 2.50826,-9.801018 2.50827,-9.80102 -0.72828,12.666667 -0.72828,12.666671 -0.007,14.66666 -0.007,14.66667 1.21285,6 1.21285,6 2.59322,-16 2.5932,-16 0.36693,22.6336 0.36689,22.6336 1.2027,1.20266 1.2027,1.20268 1.5963,-5.83628 1.5964,-5.83626 -0.9109,-29.33334 -0.9108,-29.333328 -1.4352,-5.753245 -1.4352,-5.753247 1.5134,-1.51342 1.5122,-1.513421 v 2.555677 2.555679 l 3.5208,14.044325 3.5208,14.04432 1.2373,1.33333 1.2372,1.33333 -0.7243,-7.99999 -0.7242,-8 -0.6249,-11.333338 -0.6248,-11.333333 1.1032,4.400994 1.1031,4.400995 0.8212,0.821228 0.8212,0.821227 -0.013,-2.555555 -0.013,-2.555556 -1.3741,-19.16825 -1.3742,-19.168252 0.5586,-0.558588 0.5586,-0.558589 3.4654,18.393506 3.4653,18.393506 2.1074,15.333334 2.1073,15.333331 0.5392,4.66667 0.5392,4.66666 1.3835,12.94746 1.3835,12.94744 v 2.31922 2.31922 l 1.4938,-1.49387 1.4939,-1.49387 -1.5285,-12.96038 -1.5285,-12.96039 0.5079,-0.50785 0.5078,-0.50784 2.8653,10.3621 2.8653,10.3621 1.9489,8 1.949,8 -0.5371,-33.33334 -0.5371,-33.333328 -2.0255,-12.666666 -2.0255,-12.666667 -0.7604,-4.666667 -0.7605,-4.666666 1.4626,3.333333 1.4626,3.333333 3.2934,13.615006 3.2934,13.615006 2.8127,17.718326 2.8127,17.71833 0.8482,10.66666 0.8481,10.66667 0.8729,-3.33333 0.8728,-3.33334 2.9085,-19.66666 2.9084,-19.66667 h 0.5487 0.5487 L 1056.6816,125 l -0.7406,19.66666 -0.6576,9.11787 -0.6576,9.11787 1.6716,-0.55719 1.6715,-0.55717 2.1165,-6.56068 2.1164,-6.5607 0.7743,-2 0.7743,-2 1.2731,-7.33333 1.273,-7.33333 -1.0021,-10.66667 -1.002,-10.66666 -0.8126,-6.66667 -0.8126,-6.666668 2.9996,8.239678 2.9995,8.23967 1,0.98255 1,0.98255 0.094,4.11111 0.094,4.11111 1.0423,2.66666 1.0424,2.66667 0.7902,-2.66667 0.7902,-2.66666 2.6647,-11.33333 2.6646,-11.333338 2.1009,-5.333333 2.1008,-5.333334 -0.6717,4.399615 -0.6717,4.399613 1.3133,-0.811636 1.3133,-0.811637 v 0.57772 0.577721 l -1.9457,5.514489 -1.9456,5.51448 -0.8653,9.65315 -0.8653,9.65315 2.2776,7.79997 2.2777,7.79996 0.9261,-1.13329 0.9261,-1.13331 2.4918,-7.67089 2.4919,-7.67089 0.4021,0.40217 0.4022,0.40217 -1.4081,9.04478 -1.4082,9.04476 0.4547,6.55812 0.4546,6.5581 -1.1722,-8.2e-4 -1.1721,-8.3e-4 0.9414,11 0.9415,11 1.3799,1.33333 1.3799,1.33334 -0.5919,-10.94028 -0.5919,-10.94028 1.0112,0.62494 1.0112,0.62496 0.7386,-7.01801 0.7386,-7.018 3.4469,-34 3.4469,-33.999998 3.9511,-23.260646 3.9511,-23.260645 0.8161,-0.739355 0.8161,-0.739353 -0.9463,6.666666 -0.9463,6.666667 -0.547,20.666666 -0.547,20.666667 -0.8667,10.333333 -0.8667,10.333338 h 1.2131 1.2132 l 1.4945,-3.95922 1.4944,-3.959206 -1.1703,-5.040789 -1.1703,-5.04079 0.073,-2 0.073,-2 0.7529,2 0.7528,2 1.4024,3.333334 1.4024,3.333333 0.1331,1.333333 0.1331,1.333334 1.8718,10.333331 1.8717,10.33334 h 1.2507 1.2506 l -0.7715,-13 -0.7716,-13.000005 2.0139,6 2.0139,6.000005 0.473,2 0.473,2 0.102,2.33333 0.1022,2.33333 h 1.0329 1.0329 l 2.311,-11.22718 2.311,-11.227187 2.7495,-8.901665 2.7494,-8.901667 0.5551,0.55506 0.555,0.55506 -2.0181,10.547736 -2.0181,10.547737 -0.6001,12.026056 -0.6001,12.02605 2.5553,-13.7565 2.5553,-13.756502 0.6425,-1.576832 0.6426,-1.576831 0.1052,8.165698 0.1052,8.165697 2.1162,5.8343 2.1162,5.83431 0.58,3.3457 0.5799,3.34571 1.1247,3.98763 1.1246,3.98762 0.7663,-4.66667 0.7663,-4.66666 2.9781,-19.26116 2.9782,-19.261161 -1.5004,-20.692565 -1.5004,-20.692564 0.473,-0.473012 0.473,-0.473011 2.4376,13.426736 2.4376,13.426736 h 0.7811 0.781 l 2.3486,-7.450492 2.3486,-7.45049 0.6402,0.640217 0.6402,0.640216 -2.0786,10.957565 -2.0786,10.957565 0.1583,6.186043 0.1584,6.186042 1.6849,-6.666666 1.6849,-6.666667 -0.7152,14.410185 -0.7152,14.410183 3.1799,25.44286 3.1798,25.44286 0.8844,-3.18637 0.8845,-3.18639 -0.4933,-13.33333 -0.4934,-13.33333 2.4893,10.66666 2.4893,10.66667 0.145,-2.572 0.145,-2.572 1.6036,-4.43465 1.6036,-4.43466 -1.5908,-8.99334 -1.5908,-8.99335 -0.7498,-3.33333 -0.7498,-3.33333 2.9502,5.33333 2.9501,5.33333 L 1179.5,114 l 0.4076,-1.33333 2.7977,-16.666671 2.7978,-16.666667 2.7716,-13.032118 2.7716,-13.032119 0.5185,0.518458 0.5184,0.518458 -1.4187,15.044932 -1.4188,15.044933 2.6716,13.468728 2.6716,13.468726 2.1558,16 2.1559,16 0.7274,0.66667 0.7274,0.66666 -0.8877,-22 -0.8877,-21.99999 -0.5751,-8.666671 -0.5751,-8.666667 2.642,13.333333 2.642,13.333335 1.2756,4 1.2756,4 -0.5781,-12.66667 -0.578,-12.666665 1.9055,6.666667 1.9055,6.666668 2.2684,14.66666 2.2683,14.66667 1.1048,1.26667 1.1047,1.26666 v -3.63573 -3.63573 l 4.1322,-20.96427 4.1322,-20.964265 -2.079,-12.608739 -2.079,-12.60874 0.4128,-0.412844 0.4129,-0.412843 3.0427,10.354916 3.0428,10.354917 2.4323,4.666667 2.4323,4.666666 0.036,-10.666666 0.036,-10.666667 -1.3212,-12.544583 -1.3212,-12.544583 0.4875,-0.487536 0.4876,-0.487535 2.9332,13.698786 2.9332,13.698785 3.2322,22.666666 3.2321,22.666668 2.3138,22.97758 2.3138,22.9776 0.8157,-0.9776 0.8157,-0.97758 2.2731,-14.66667 2.2731,-14.66667 2.3946,-9.33333 2.3945,-9.33333 2.8354,5.33333 2.8353,5.33333 0.032,-3.33333 0.032,-3.33333 -1.1774,-8 -1.1774,-8 -0.8185,-4.000001 -0.8186,-4 2.4712,5.333333 2.4711,5.333338 2.4309,9.05412 2.4308,9.05412 1.0003,-1.05412 1.0004,-1.05413 5.0815,-15.99999 5.0816,-16.000005 0.4544,3.60073 0.4544,3.600729 -1.3774,2.573805 -1.3775,2.573811 -0.8524,12.49213 -0.8523,12.49213 3.5625,18 3.5626,18 0.7475,3.33333 0.7475,3.33333 2.4009,-6.66666 2.4009,-6.66667 0.087,-5.33333 0.088,-5.33334 -1.8999,-7.13792 -1.8999,-7.13792 0.8075,0.80742 0.8074,0.80741 2.2186,4.99717 2.2187,4.99718 0.957,-5.03706 0.957,-5.03705 1.2269,0.75825 1.2268,0.75826 0.6459,-3.05454 0.6459,-3.05453 1.5368,-10 1.5367,-10 3.87,-15.142549 3.8699,-15.14255 1.4116,-2.190783 1.4116,-2.190782 -0.7415,3.333333 -0.7415,3.333333 -1.9332,14 -1.9333,13.999998 -0.6901,9.87306 -0.69,9.87306 1.1686,-1.20639 1.1687,-1.2064 1.4324,-4.66666 1.4323,-4.66667 -0.6692,5.33333 -0.6691,5.33334 -0.6516,16.66666 -0.6516,16.66667 3.1275,-14.66667 3.1275,-14.66666 2.1116,-7.33334 2.1116,-7.33333 3.5166,-27.999998 3.5166,-28 2.5278,-11.999999 2.5278,-12 -0.6409,12 -0.6408,11.999999 -0.8328,34.666667 -0.8328,34.666661 0.8714,-0.7996 0.8715,-0.79961 3.513,-11.86706 3.513,-11.86706 2.9274,-14.666665 2.9272,-14.666666 -0.4019,11.142801 -0.4019,11.1428 -0.8466,5.64662 -0.8468,5.64662 3.3642,13.87725 3.3642,13.87724 0.9094,6.34973 0.9095,6.34972 1.3892,0.85863 1.3893,0.85861 -0.8374,-6.11022 -0.8376,-6.11022 1.5314,-0.51046 1.5314,-0.51046 -1.5608,-21.81942 -1.5608,-21.819424 0.5384,-0.538359 0.5382,-0.538357 1.678,7.49764 1.6779,7.49764 0.9296,0.57456 0.9297,0.57455 1.6082,-9.968745 1.6081,-9.968746 h 0.4879 0.488 l -0.7751,16.403651 -0.7751,16.40364 1.6564,5.01903 1.6564,5.01902 0.6884,-0.68834 0.6883,-0.68835 1.0521,-4.40099 1.0523,-4.401 -0.027,13.33334 -0.027,13.33333 2.1304,6 2.1302,6 -0.5206,-35.09908 -0.5208,-35.099078 0.5272,0.52714 0.527,0.52714 2.56,15.004478 2.5602,15.00448 0.9002,0.90032 0.9004,0.90031 -0.8242,-19.33285 -0.8243,-19.332858 -1.3891,-20.452849 -1.3892,-20.452849 0.541,-0.540931 0.5409,-0.54093 2.9355,16.327113 2.9353,16.327113 2.4547,16.666666 2.4546,16.666665 3.5166,7.33334 3.5165,7.33333 -0.6983,-23.333335 -0.6982,-23.333333 -1.9415,-13.626937 -1.9416,-13.626937 -2.0645,-8.90236 -2.0647,-8.902358 0.516,-0.515963 0.516,-0.515963 4.7745,14.378592 4.7747,14.378593 3.2767,16.666667 3.2768,16.666666 1.549,12.666668 1.5491,12.66667 0.6415,3.15733 0.6413,3.15733 0.4812,-0.49067 0.4812,-0.49066 -1.2385,-16.66667 -1.2386,-16.666665 -2.0069,-12.522763 -2.0071,-12.522763 0.5372,-0.537209 0.5372,-0.53721 2.7022,10.393306 2.7021,10.393306 0.8584,3.823999 0.8583,3.823998 0.765,-0.764994 0.765,-0.764995 -1.5842,-19.72567 -1.584,-19.725671 -2.5996,-14.666666 -2.5994,-14.666667 -0.6607,-4 -0.6605,-4 2.7509,7.333334 2.7511,7.333333 3.8522,16 3.8524,15.999999 1.5967,10.666667 1.5967,10.666667 0.9145,1.750994 0.9145,1.750993 3.0559,-14.750993 3.0562,-14.750994 h 0.6828 0.6828 l -0.8665,7.666666 -0.8665,7.666667 -1.2434,27.26628 -1.2434,27.266281 0.7908,10.25505 0.7908,10.25504 1.9042,-0.27948 1.9043,-0.27949 4.1631,-11.24184 4.163,-11.24184 -0.2877,-13.66667 -0.2877,-13.666665 h 0.5352 0.5353 L 1435.2817,107 l 2.2793,12.33333 0.7623,2 0.7623,2 0.9661,-4 0.9661,-4 0.1578,61 0.1577,61 z M 711.55554,172 h 0.44444 v -4.66667 -4.66667 h -1.33333 -1.33333 v 3.77778 3.77778 l 0.88889,0.88888 0.88888,0.8889 z m 261.25009,-0.36122 0.99631,-0.99629 2.24213,-22.32125 L 978.2862,126 l -2.30522,-9.71768 -2.30524,-9.71768 -0.83788,-0.83787 -0.83788,-0.83788 -0.48207,0.55555 -0.48205,0.55556 -0.87947,21.25041 -0.87945,21.25041 0.81574,-0.81576 0.81575,-0.81574 1.78359,-7.10132 1.78358,-7.10134 -0.53266,8 -0.53267,8 -0.80047,11.98422 -0.80046,11.9842 z M 415.58576,169 l 0.60976,-2.33334 -0.60976,-2.33333 L 414.97599,162 v 4.66666 4.66667 z m 665.35274,-5.98167 0.5755,-2.98167 -0.5573,-3.685 -0.5572,-3.685 -0.018,6.66667 -0.018,6.66667 0.5754,-2.98167 z M 222.34758,161 l 0.4962,-3.66667 -0.4962,-3.66667 -0.4962,-3.66666 -1.07024,3.66666 -1.07024,3.66667 1.07024,3.66667 1.07024,3.66666 z m 142.59338,-0.66667 0.57783,-3 -0.57783,-3 -0.57782,-3 v 6 6 z m -260.86692,-3.98524 1.1152,-5.65191 -1.07471,-13.01476 -1.07472,-13.01476 -0.0405,18.66667 -0.0405,18.66667 1.1152,-5.65191 z m 200.12019,2.09016 0.87328,-3.10492 0.11827,-5.33333 0.11827,-5.33334 -0.90256,-5.33333 -0.90256,-5.33333 -0.94987,3.33333 -0.94985,3.33333 -0.13294,9.44444 -0.13293,9.44446 0.99381,0.9938 0.9938,0.99381 0.8733,-3.10492 z m 188.40683,1.35061 0.40102,-0.45553 3.65311,-17.26825 3.65311,-17.26826 -0.901,-14.73174 -0.90099,-14.731748 -2.01823,-13.960888 -2.01822,-13.960886 -1.09443,-1.955634 -1.09443,-1.955634 -1.10978,11.916521 -1.10979,11.916521 -0.0307,29.999998 -0.0307,30 1.10002,6.45553 1.10002,6.45554 0.40102,-0.45554 z M 1341.3333,156 l 1.2925,-2 -0.112,-7.33334 -0.112,-7.33333 -1.0137,-7.33333 -1.0137,-7.33334 -0.1674,16.66667 L 1340.0397,158 Z m -151.1907,-1.33334 h 0.524 l -0.02,-26.33333 -0.02,-26.33333 -1.2925,2 -1.2925,2 -0.02,22.22428 -0.02,22.22429 0.8093,2.10904 0.8094,2.10905 h 0.524 z m -79.736,-1.33333 h 1.0734 l 1.6757,-9.97303 1.6758,-9.97302 -0.9318,-12.69364 L 1112.9679,108 h -0.9607 -0.9607 l -0.8566,8.19559 -0.8566,8.19558 v 14.47108 14.47108 z m -421.39935,-2.43997 0.61939,-1.77331 -0.93639,-9.99253 -0.93637,-9.99253 -0.68918,0.68918 -0.68917,0.68917 1.00616,11.07666 1.00617,11.07666 z M 824.98957,152 h 1.39177 l 0.80932,-2.10906 0.80932,-2.10904 V 129.89095 112 h -1.33333 -1.33334 l -0.007,7 -0.007,7 -0.86087,13 -0.86086,13 h 1.39178 z m -570.46556,-1.33334 h 1.19068 l 0.81922,-2.13488 0.81923,-2.13486 -0.99105,-24.86513 -0.99106,-24.865125 -0.863,8.666665 -0.86301,8.66667 -0.15585,18.33333 -0.15584,18.33333 z m 269.02568,-1 0.67252,-1.66666 -0.67252,-1.66667 -0.67252,-1.66667 V 148 v 3.33333 z m -303.21636,-0.66316 1.66666,-0.55204 0.41751,-11.8924 0.41749,-11.8924 -1.03206,-7.33333 -1.03207,-7.33333 -0.91092,12 -0.91092,12 -0.14117,7.77777 -0.14119,7.77779 z M 618.80931,148 h 1.19068 l -0.0768,-12.33334 -0.0768,-12.33333 -1.00086,-5.33333 -1.00085,-5.33333 -0.99952,15.35639 -0.99952,15.3564 0.88653,2.31027 0.88654,2.31027 h 1.19068 z m 251.26936,-10.66667 h 0.58798 V 136 134.66666 h -1.41203 -1.41201 l 0.82404,1.33334 0.82404,1.33333 z m -1.27313,-5.69444 0.80555,-0.80556 -0.7003,-1.75 -0.70029,-1.75 -0.1052,2.55556 -0.1052,2.55555 0.80556,-0.80555 z m -204.80556,-2.30556 1.2925,-2 L 665.17994,122 665.06741,116.66667 663.99998,120 l -1.06752,3.33333 -0.11253,4 -0.11253,4 z M 267.79281,128 l 1.1921,-2 0.80314,-7.33334 0.80314,-7.33333 -1.11084,2.66667 -1.11085,2.66667 -0.8844,6.66666 L 266.6007,130 Z m 669.5405,-4 1.29249,-2 v -1.33334 -1.33333 l -1.29249,2 -1.29249,2 V 124.66666 126 Z M 41.75884,118.63253 42.512718,117.93172 44.626783,100.78073 46.74085,83.629737 46.172246,83.061134 45.603642,82.49253 44.1748,91.579597 42.745959,100.66667 41.87546,110 l -0.870498,9.33333 z m 772.38003,2.33969 -0.80556,0.80556 0.1052,-2.55556 0.1052,-2.55555 0.7003,1.75 0.70029,1.74999 -0.80555,0.80556 z"
         style="fill:#eeeeee;" />
    </g>
  </g>
</svg>
