<?xml version="1.0" encoding="UTF-8" standalone="no"?>
<svg
   xmlns:dc="http://purl.org/dc/elements/1.1/"
   xmlns:cc="http://creativecommons.org/ns#"
   xmlns:rdf="http://www.w3.org/1999/02/22-rdf-syntax-ns#"
   xmlns:svg="http://www.w3.org/2000/svg"
   xmlns="http://www.w3.org/2000/svg"
   xmlns:sodipodi="http://sodipodi.sourceforge.net/DTD/sodipodi-0.dtd"
   xmlns:inkscape="http://www.inkscape.org/namespaces/inkscape"
   inkscape:version="1.0beta2 (2b71d25, 2019-12-03)"
   sodipodi:docname="tree.svg"
   viewBox="0 0 461.62601 330.97"
   height="330.97"
   width="461.62601"
   id="svg4190"
   version="1.1">
  <metadata
     id="metadata4196">
    <rdf:RDF>
      <cc:Work
         rdf:about="">
        <dc:format>image/svg+xml</dc:format>
        <dc:type
           rdf:resource="http://purl.org/dc/dcmitype/StillImage" />
        <dc:title></dc:title>
      </cc:Work>
    </rdf:RDF>
  </metadata>
  <defs
     id="defs4194" />
  <sodipodi:namedview
     inkscape:current-layer="g4202"
     inkscape:window-maximized="0"
     inkscape:window-y="196"
     inkscape:window-x="0"
     inkscape:cy="250"
     inkscape:cx="250"
     inkscape:zoom="0.628"
     showgrid="false"
     id="namedview4192"
     inkscape:window-height="644"
     inkscape:window-width="1099"
     inkscape:pageshadow="2"
     inkscape:pageopacity="0"
     guidetolerance="10"
     gridtolerance="10"
     objecttolerance="10"
     borderopacity="1"
     inkscape:document-rotation="0"
     bordercolor="#666666"
     pagecolor="#ffffff" />
  <g
     id="g4198"
     inkscape:label="Image"
     inkscape:groupmode="layer">
    <g
       transform="translate(3.1847178,-9.5541399)"
       id="g4202">
      <path
         inkscape:connector-curvature="0"
         id="path4204"
         d="m 170.31977,339.67354 c 1.22475,-1.98169 24.33741,-4.80683 47.07379,-5.75399 l 15.99999,-0.66654 4.14427,-4.11212 4.14426,-4.11212 -1.92677,-8.48732 c -1.14954,-5.06364 -2.1705,-14.44753 -2.53096,-23.26277 -0.3323,-8.12651 -0.9602,-14.9955 -1.39534,-15.26443 -0.43513,-0.26893 -8.13612,-0.99792 -17.1133,-1.61999 -14.48753,-1.00391 -17.65063,-1.56429 -28.14129,-4.98558 -15.27539,-4.98171 -22.38622,-5.15312 -34.63281,-0.83481 -10.17453,3.58768 -15.53859,3.96408 -14.77305,1.03666 0.39609,-1.51466 -0.68632,-2.66761 -4.90439,-5.22403 -3.34274,-2.02592 -5.21778,-3.78823 -4.90309,-4.60833 0.28027,-0.73035 0.11188,-1.08212 -0.37419,-0.78171 -0.48607,0.30041 -1.15591,-0.16303 -1.48855,-1.02985 -0.87799,-2.28802 -0.80602,-2.41247 1.39522,-2.41247 2.10908,0 2.69104,-1.45488 1,-2.5 -0.55,-0.33992 -1,-2.00036 -1,-3.68986 0,-2.96907 0.12056,-3.05226 3.60404,-2.48697 l 3.60403,0.58485 -0.40323,-3.45401 c -0.35356,-3.02847 -0.12794,-3.45401 1.83123,-3.45401 1.64213,0 2.567,-0.91958 3.48883,-3.46886 l 1.25435,-3.46885 1.21812,3.54326 c 1.46454,4.26006 1.9331,4.80267 3.37678,3.91043 0.60896,-0.37636 0.83358,-1.54642 0.49914,-2.60014 -0.671,-2.11415 0.5063,-2.53625 2.23958,-0.80297 1.93014,1.93014 3.54854,-0.11458 2.96021,-3.74 -0.58433,-3.60083 0.30127,-4.31363 2.32692,-1.87287 1.76554,2.12735 5,1.91426 5,-0.3294 0,-1.25402 0.70767,-1.80443 2.25,-1.75 1.60252,0.0566 2.34196,-0.56808 2.56955,-2.1706 0.17575,-1.2375 0.62575,-2.24311 1,-2.23469 1.62554,0.0366 3.68079,2.05546 3.68469,3.61949 0.002,0.93575 0.62432,1.90805 1.3822,2.16068 1.03329,0.34443 1.26315,-0.32292 0.91895,-2.66808 -0.25245,-1.72007 -0.42444,-3.12253 -0.3822,-3.11658 2.34831,0.33095 10.1584,3.31218 10.61576,4.0522 0.43588,0.70526 1.50767,0.64504 3.33461,-0.18736 2.38987,-1.0889 2.86343,-0.98233 4.21606,0.94883 1.11449,1.59116 2.55424,2.17551 5.3601,2.17551 2.61632,0 4.0343,0.51598 4.45893,1.62253 0.50207,1.30839 1.6927,1.5338 6.14945,1.16421 5.85614,-0.48564 7.37112,0.19718 4.93089,2.2224 -2.25978,1.87545 -1.87392,2.57524 2.99262,5.42721 4.25507,2.49364 7.04905,5.69964 5.93663,6.81207 -0.28127,0.28126 0.63457,0.799 2.03518,1.15054 1.40061,0.35153 2.54657,1.05585 2.54657,1.56515 0,1.02942 10.73312,10.03589 11.95989,10.03589 0.42711,0 1.53679,-2.70943 2.46595,-6.02095 2.32949,-8.30223 8.74414,-17.48548 21.58475,-30.90084 0.83083,-0.86802 2.63083,-2.47821 4,-3.57821 1.36918,-1.1 3.08804,-3.16293 3.81971,-4.5843 0.93149,-1.80956 4.59211,-4.16157 12.21083,-7.84568 7.76522,-3.75494 12.03704,-6.51603 14.91971,-9.64336 4.45562,-4.83378 5.28824,-9.05464 2.28916,-11.60465 -4.19422,-3.5662 -13.06632,-8.12866 -20.97454,-10.78613 -10.99276,-3.69399 -13.20738,-3.037 -7.20637,2.13782 4.38984,3.78547 4.40511,3.82092 1.64767,3.8236 -1.53079,10e-4 -5.07872,1.1659 -7.8843,2.5876 -4.58499,2.32339 -5.53945,2.47451 -9.43442,1.49374 -6.05713,-1.5252 -27.31181,-0.32259 -29.61079,1.6754 -0.94202,0.81869 -2.45266,1.2046 -3.35698,0.85758 -1.04547,-0.40119 -2.90573,0.47667 -5.10843,2.41067 -2.96232,2.60095 -3.99721,2.9519 -7.14302,2.42235 -5.6117,-0.94465 -7.17881,-1.49302 -7.17881,-2.51203 0,-1.52617 -4.01483,-1.05755 -4.62794,0.54019 -0.31084,0.81004 -1.9889,1.73989 -3.72902,2.06634 -3.46823,0.65065 -9.08928,-1.00809 -8.21422,-2.42396 0.30204,-0.48871 -0.0941,-1.42246 -0.88039,-2.07499 -2.31411,-1.92053 -0.7327,-4.23957 2.41902,-3.54734 3.52037,0.7732 6.156,-1.83083 3.34712,-3.30698 -3.65639,-1.92154 -10.17498,-2.40199 -13.06032,-0.96259 -2.27149,1.13317 -4.62794,1.19524 -12.68683,0.33419 -9.53396,-1.01866 -9.90364,-1.14922 -10.07294,-3.55747 -0.0967,-1.375 -0.35997,-3.175 -0.58512,-4 -0.28561,-1.04656 0.23228,-1.41195 1.71322,-1.20873 2.2064,0.30278 3.33556,-1.89301 3.36377,-6.54127 0.0156,-2.56913 2.16983,-2.97167 4.01365,-0.75 1.86011,2.24129 2.98771,1.83371 4.14984,-1.5 0.5752,-1.65 1.45179,-3 1.94799,-3 0.49619,0 0.90217,-0.62325 0.90217,-1.38499 0,-1.88792 -4.37622,-4.61501 -7.4058,-4.61501 -1.36189,0 -2.75428,-0.45 -3.0942,-1 -1.0997,-1.77935 -3.51465,-1.06195 -4.62443,1.37374 -2.14677,4.71166 -15.90533,9.59706 -17.23911,6.12128 -0.42171,-1.09897 -2.17806,-1.49502 -6.62983,-1.49502 -5.47445,0 -6.14388,0.23079 -6.9697,2.40286 -1.35504,3.56402 -2.92054,4.05511 -5.42541,1.70191 -2.48269,-2.33237 -4.74393,-2.63946 -7.71748,-1.04806 -1.53782,0.82302 -2.7104,0.60187 -5.30229,-1 -4.30609,-2.66131 -6.09317,-2.59391 -8.285461,0.31248 -1.69159,2.24259 -1.9521,2.29049 -4.87551,0.89641 -2.88298,-1.3748 -3.42933,-1.30003 -8.21271,1.12389 -4.14465,2.10026 -5.62361,2.40682 -7.73627,1.60359 -4.093749,-1.55644 -6.613988,-1.2036 -7.192051,1.00692 -0.340859,1.30345 -1.364016,2 -2.937765,2 -2.424791,0 -2.715813,-0.38901 -3.740514,-5 -0.307035,-1.38161 -1.924167,-3.27011 -3.61486,-4.22147 -3.007903,-1.69257 -3.140275,-1.67164 -7.88161,1.24573 -5.952965,3.66289 -10.465303,4.66141 -13.566018,3.00195 -1.911526,-1.02301 -3.548073,-0.94257 -9.087572,0.44668 -7.194326,1.80427 -12.458002,1.44107 -14.483372,-0.99935 -0.96643,-1.16448 -0.95445,-1.79704 0.0571,-3.01592 0.96957,-1.16826 0.99927,-1.82318 0.12244,-2.7 -0.63669,-0.63669 -1.15762,-2.20674 -1.15762,-3.489 0,-1.28227 -0.63065,-2.5734 -1.401461,-2.86918 -0.7708,-0.29578 -1.61929,-1.3708 -1.88554,-2.38893 -0.6119596,-2.34014 3.401011,-3.55505 6.414881,-1.94207 3.04451,1.62937 4.582013,-0.21498 3.02604,-3.62998 -1.06515,-2.33774 -0.96558,-2.67495 0.936682,-3.1724 1.922809,-0.50283 2.066278,-1.0258 1.484516,-5.41134 -0.630019,-4.74931 0.392744,-6.43405 2.125194,-3.5007 0.439829,0.7447 1.81219,1.88554 3.04969,2.53518 1.850627,0.97151 2.25,0.91915 2.25,-0.295 0,-2.79953 2.305394,-2.94896 4.42796,-0.28701 1.571735,1.97115 2.675957,2.4784 4.40875,2.02526 2.37124,-0.62009 2.366124,-0.55475 0.554475,-7.08245 -0.521393,-1.87868 -0.233875,-2.24643 1.742184,-2.22836 1.679629,0.0154 2.802061,0.95879 3.866631,3.25 2.436416,5.24375 4.450059,4.18588 4.799904,-2.52164 0.164947,-3.1625 0.694451,-5.75 1.176676,-5.75 0.482224,0 1.087069,-0.7875 1.344099,-1.75 0.405742,-1.51939 0.558411,-1.46934 1.158511,0.37976 0.511478,1.57602 1.771615,2.27467 4.846725,2.68713 4.660805,0.62514 7.674085,-1.19162 7.674085,-4.62687 0,-1.87422 0.115004,-1.89592 1.828741,-0.34501 2.494077,2.25711 4.426472,2.07723 6.077004,-0.56569 l 1.386839,-2.22068 1.008957,2.47068 c 0.554927,1.35887 0.919231,3.03378 0.809567,3.72201 -0.109665,0.68823 0.832973,1.64402 2.094752,2.12398 6.84686,2.60446 12.96933,4.28284 13.54029,3.71187 0.35679,-0.35679 -0.15897,-2.01602 -1.14615,-3.68718 -2.17274,-3.67816 -1.75964,-4.29139 1.94267,-2.88378 2.48216,0.94372 3.11189,0.75743 5.25591,-1.5548 3.398871,-3.66553 4.824331,-1.99229 3.336491,3.91647 -1.52294,6.04812 -1.50715,6.13155 1.41198,7.46159 3.34586,1.52448 3.45295,1.49844 3.45295,-0.83948 0,-1.1 0.3596,-2 0.79911,-2 0.43951,0 1.35977,-1.55046 2.04501,-3.44548 1.0915,-3.01846 1.7817,-3.52582 5.56918,-4.09379 3.08634,-0.46282 5.22769,-0.18062 7.48435,0.98634 3.10599,1.60617 5.6905,1.3136 4.55964,-0.51617 -0.92238,-1.49245 2.97528,-1.07217 5.10158,0.5501 1.36711,1.04304 1.59822,1.70933 0.78155,2.25313 -0.63777,0.42468 -1.08777,1.97038 -1,3.4349 0.0878,1.46452 0.34318,2.47952 0.56757,2.25554 0.2244,-0.22397 1.05545,0.13012 1.84678,0.78687 1.14296,0.94858 1.63471,0.84399 2.3917,-0.50868 1.31883,-2.35662 3.19024,-2.13176 6.67721,0.80233 l 2.97712,2.50508 1.04758,-3.00508 c 1.27245,-3.65016 3.88184,-3.92815 4.74098,-0.50509 0.71507,2.84908 1.64932,3.11846 3.70073,1.06705 1.24393,-1.24392 1.72481,-1.03817 3.6456,1.55984 1.50122,2.0305 2.91225,2.893 4.38848,2.68246 2.21188,-0.31546 2.40242,-1.31491 1.0866,-5.69939 -0.6931,-2.30947 -0.58595,-2.36541 3.17836,-1.65922 5.22365,0.97997 5.41087,1.15418 5.41087,5.03495 0,4.09941 1.73604,4.71039 7.75,2.72756 4.19425,-1.38287 4.25,-1.46258 4.25,-6.07705 0,-3.17232 -0.90688,-6.43082 -2.82039,-10.13393 -2.57003,-4.97364 -3.50923,-5.80161 -10.5806,-9.32756 -4.40967,-2.19876 -10.85567,-4.43769 -14.92961,-5.1856 -3.94317,-0.72391 -8.5194,-1.78931 -10.1694,-2.36758 -6.73138,-2.35908 -28.51822,-7.020213 -36,-7.701923 -4.4,-0.400908 -9.35,-0.864538 -11,-1.030278 -1.650001,-0.16574 -7.725001,-0.5801 -13.500001,-0.92078 -11.664187,-0.68811 -19.069417,-2.2019 -29.5,-6.03043 -8.08234,-2.96662 -25.061872,-4.50063 -28.810484,-2.60289 -4.637238,2.34761 -17.670529,6.29454 -18.6948786,5.66146 -0.5918,-0.36575 -0.80864,-1.50737 -0.48187,-2.53692 0.47079,-1.48332 -0.44048,-2.39618 -4.38971,-4.39741 -7.02734,-3.56103 -10.84809,-9.56236 -6.08787,-9.56236 1.70224001,0 1.86583001,-0.31642 1.00000001,-1.93426 -0.56936,-1.06384 -1.03519001,-3.12839 -1.03519001,-4.5879 0,-2.54187 0.16847001,-2.62517 4,-1.97784 4.33079,0.73168 4.63859,0.3098 2.97202,-4.07359 -1.24485,-3.27422 -0.77662,-3.92739 1.81942,-2.53803 1.76967,0.9471 2.03377,0.63539 2.6849596,-3.16898 l 0.72224,-4.2194 1.859671,4.25 c 2.08605,4.76732 3.94169,5.55945 3.94169,1.68261 0,-2.20019 0.32181,-2.46873 2.25,-1.87761 1.2375,0.37938 2.812502,1.1398 3.500002,1.68983 1.574641,1.25979 1.678228,-0.9883 0.222022,-4.81842 -1.358808,-3.57393 -0.614236,-4.10263 2.150424,-1.52696 3.106295,2.89395 5.234671,2.74902 4.648649,-0.31656 -0.39813,-2.08268 -0.103094,-2.39398 2.132407,-2.25 1.991888,0.1283 2.668921,-0.35546 2.915034,-2.08289 0.397299,-2.78857 2.823461,-2.95333 3.681464,-0.25 0.821057,2.58692 2.5,2.58692 2.5,0 0,-1.12933 0.666667,-2 1.531385,-2 2.26737,0 3.088843,-3.0734 1.116496,-4.17718 -1.31484,-0.73582 -1.436958,-1.34842 -0.58583,-2.93876 0.5914,-1.10504 1.112856,-3.33102 1.158791,-4.94661 0.101843,-3.58197 0.445344,-3.63154 2.965313,-0.42792 1.085697,1.38024 2.409472,2.24039 2.941723,1.91144 0.53225,-0.32895 2.145364,0.57954 3.584698,2.01888 3.183602,3.1836 4.786155,2.83815 4.791252,-1.03282 0.0077,-5.84952 2.487778,-6.86673 7.090633,-2.90825 2.97529,2.55876 6.802745,3.28558 7.905539,1.50122 0.339919,-0.55 1.421732,-1 2.404029,-1 0.982298,0 2.53074,-0.82293 3.440981,-1.82874 2.03667,-2.25049 2.21643,-7.17126 0.26198,-7.17126 -0.766157,0 -1.616098,-0.58135 -1.888758,-1.29189 -0.8907,-2.32113 1.674288,-4.37205 5.647868,-4.51594 4.08101,-0.14778 7.00692,-1.7796 6.02875,-3.36231 -0.95543,-1.545907 0.53346,-5.8298591 2.02616,-5.8298591 0.7606,0 2.26773,1.6875001 3.34916,3.7500001 2.02609,3.864109 2.40462,3.978809 8.861411,2.685179 3.83547,-0.76844 4.59692,0.28128 3.35222,4.62132 -0.55201,1.92473 -0.58247,3.5749 -0.0718,3.89237 0.48753,0.30312 1.04429,1.64088 1.23723,2.9728 0.54422,3.75672 2.63591,3.59686 4.5157,-0.34511 1.73494,-3.6382 2.74813,-4.33534 3.80813,-2.62023 0.68924,1.11522 3.5828,0.29354 5.02699,-1.42751 0.90086,-1.07357 7.5,-2.95769 7.5,-2.14132 0,0.18562 -1.35,2.03624 -3,4.1125 -1.65,2.07626 -3,4.83813 -3,6.1375 0,2.83841 -0.27446,2.81219 4.57144,0.43667 2.16071,-1.0592 4.27583,-1.58943 4.70027,-1.17829 0.42444,0.41115 1.09944,2.66732 1.5,5.01371 0.79512,4.65766 2.53485,5.95526 3.05585,2.27926 0.18016,-1.27113 0.92693,-2.54114 1.65948,-2.82225 0.96949,-0.37203 1.10343,-1.30775 0.49224,-3.43885 -0.46187,-1.61026 -0.70281,-2.92775 -0.53548,-2.92775 0.16734,0 2.38592,1.16347 4.9302,2.58549 4.46219,2.49397 4.62595,2.51376 4.62595,0.55902 0,-1.11456 0.40775,-2.27848 0.90612,-2.58649 0.49837,-0.30801 0.67277,-1.45234 0.38756,-2.54297 -0.2852,-1.09063 -0.18578,-3.22768 0.22095,-4.749 l 0.73949,-2.76605 1.37581,3.25 c 1.29568,3.06071 3.37007,4.44566 3.37007,2.25 0,-0.55 1.53873,-1 3.41939,-1 h 3.4194 l -0.96238,3.48543 c -1.72792,6.25803 3.05082,10.68107 5.14774,4.76457 1.33392,-3.76369 2.43195,-5.5687 3.63063,-5.96826 0.55654,-0.18551 1.01606,0.2377 1.02117,0.94048 0.0125,1.72293 6.27741,11.77778 7.3384,11.77778 0.46353,0 1.54648,-0.70369 2.40655,-1.56376 0.86007,-0.86006 2.04557,-1.26598 2.63444,-0.90204 0.58888,0.36395 1.89766,-0.0867 2.9084,-1.00138 2.5391,-2.29786 3.51999,-0.85398 3.88395,5.71718 0.21165,3.82138 2.52671,3.4755 5.01981,-0.75 1.13578,-1.925 2.60729,-3.5 3.27003,-3.5 0.66275,0 2.02792,-0.74474 3.03373,-1.65499 1.74046,-1.5751 1.82874,-1.47571 1.82874,2.05902 0,2.32527 0.3903,3.47279 1.0438,3.0689 0.5741,-0.35481 1.6991,-0.10127 2.5,0.56342 1.11521,0.92554 1.4562,0.92992 1.4562,0.0187 0,-0.73315 0.76454,-0.94718 1.99191,-0.55763 1.48752,0.47212 2.27695,0.007 3.11764,-1.83852 0.61916,-1.35891 2.1978,-2.67567 3.5081,-2.92615 2.00411,-0.38311 2.38235,-0.0521 2.38235,2.08491 0,2.39607 1.13815,6.74651 3.14223,12.01088 1.29269,3.39563 3.063,2.1868 3.33399,-2.27655 0.14774,-2.43355 0.93723,-4.38497 2.12929,-5.26309 1.73119,-1.27527 1.92266,-1.15393 2.22143,1.40777 0.4122,3.53434 2.17305,5.56281 2.17305,2.50332 0,-1.31039 0.62019,-2.2 1.53373,-2.2 0.84354,0 2.4799,-1.60365 3.63633,-3.56366 2.90372,-4.92144 4.56704,-3.14065 2.83723,3.03762 -1.55812,5.56506 -0.7632,6.88849 1.50407,2.50407 1.09117,-2.11008 1.99655,-2.87012 2.6457,-2.22097 1.61892,1.61892 5.62587,-0.9217 6.23179,-3.9513 0.58172,-2.90859 5.81414,-6.41637 7.76893,-5.20824 0.73473,0.45408 0.58153,0.96886 -0.46214,1.55293 -0.92578,0.51809 -1.52551,2.12855 -1.47353,3.95688 0.0482,1.69575 -0.54453,3.5282 -1.31722,4.07212 -1.00055,0.70431 -0.49461,0.83301 1.75789,0.44719 2.09931,-0.35959 3.56952,-0.0517 4.37245,0.9158 0.66531,0.80166 2.39206,1.48101 3.83721,1.50966 1.87801,0.0372 0.86654,0.70657 -3.54568,2.34632 -6.62451,2.46192 -13.29871,8.02963 -11.62806,9.70028 1.27586,1.27586 6.14977,-0.54025 6.93391,-2.58369 0.88997,-2.31922 2.11739,-1.80217 2.11739,0.89195 0,3.20415 2.48128,8.68133 3.74487,8.26642 0.55282,-0.18152 1.15823,-1.37829 1.34536,-2.65949 0.45998,-3.14941 5.19948,-10.16609 6.56382,-9.71754 0.60277,0.19817 1.24655,1.45006 1.43063,2.78198 0.58443,4.22889 2.03344,4.48154 3.64072,0.63479 0.83672,-2.00254 2.42204,-4.12305 3.52295,-4.71224 1.79993,-0.96329 2.00165,-0.76221 2.00165,1.99532 0,1.79685 0.61813,3.30377 1.49288,3.63944 0.98837,0.37927 1.29798,1.34945 0.91616,2.87075 -0.48895,1.94814 -0.0971,2.40322 2.57469,2.99004 1.73327,0.38069 3.39415,1.32473 3.69083,2.09787 0.91149,2.37532 3.17456,1.55808 3.50902,-1.26718 0.22525,-1.90274 1.12679,-2.94122 3.12892,-3.60417 4.18717,-1.38647 4.38181,-0.21765 0.79537,4.77638 -1.77583,2.4728 -2.949,4.9487 -2.60704,5.50201 0.83502,1.35109 5.69207,0.1445 7.23884,-1.79828 2.00889,-2.52323 2.60293,-0.59619 0.88054,2.85644 l -1.58847,3.18415 2.98413,-0.59682 c 2.62453,-0.5249 2.98413,-0.31792 2.98413,1.71766 0,1.47271 0.87296,2.71224 2.40023,3.40811 2.66777,1.21552 3.59977,0.74113 3.59977,-1.83227 0,-1.90468 1.93305,-2.94032 5.48817,-2.94032 1.80176,0 2.21141,0.43279 1.82139,1.92425 -0.36749,1.40526 0.33204,2.35617 2.59362,3.52568 2.90365,1.50154 4.30851,4.55007 2.09682,4.55007 -0.55,0 -1,-0.55013 -1,-1.22251 0,-0.67237 -0.7209,-0.19327 -1.602,1.06467 -1.45914,2.08322 -1.28018,3.60163 0.43533,3.69357 0.36667,0.0197 1.63824,0.66484 2.82572,1.43375 l 2.15905,1.39802 -3.06848,2.86639 c -3.78501,3.535728 -6.58973,5.150438 -9.42186,5.424288 -1.19474,0.11552 -3.59674,0.946683 -5.33779,1.847013 -2.97698,1.53946 -3.24622,1.52849 -4.52008,-0.18411 -1.29901,-1.746423 -1.44408,-1.732773 -3.53842,0.3329 -1.85023,1.8249 -2.6334,1.99729 -5.12611,1.12832 -2.48232,-0.86534 -3.71996,-0.60237 -7.91765,1.6823 -4.72407,2.57116 -5.10096,2.62569 -7.46079,1.07948 -2.18727,-1.43316 -2.66178,-1.45208 -3.95615,-0.15771 -0.80892,0.80892 -1.47077,1.96742 -1.47077,2.57443 0,1.52761 -4.27278,3.04443 -5.45,1.93472 -1.37924,-1.30014 -5.94816,-1.09736 -7.37275,0.32723 -1.72303,1.72303 -12.20312,1.92191 -14.76616,0.28023 -1.58396,-1.01456 -1.98018,-2.07891 -1.63906,-4.40306 0.38133,-2.59817 0.0422,-3.22004 -2.22619,-4.08249 -6.63496,-2.522613 -15.25544,-0.22157 -20.54584,5.48424 -1.375,1.48296 -4.52499,3.72989 -6.99999,4.99316 -7.38006,3.76688 -13.61129,9.91614 -15.41628,15.21347 -1.36428,4.00396 -1.39669,4.9073 -0.21831,6.08568 1.17838,1.17838 1.86305,0.91528 4.61254,-1.77243 1.77582,-1.73591 3.80126,-2.93652 4.50098,-2.66801 0.69972,0.26851 2.50465,-0.15119 4.01095,-0.93267 3.46154,-1.79587 5.51012,-1.81197 5.51012,-0.0433 0,0.75765 0.69778,1.95665 1.5506,2.66445 1.30972,1.08696 1.63855,0.95063 2.11664,-0.87756 0.65657,-2.51074 2.04717,-2.69503 4.77388,-0.63265 2.68521,2.031 3.88813,1.83531 3.26912,-0.5318 -0.63378,-2.42358 0.56622,-2.58068 2.78261,-0.36429 1.22078,1.22079 1.92381,1.34762 2.77143,0.5 1.61765,-1.61765 3.05305,-1.40507 2.37869,0.35229 -0.31405,0.81841 -0.2497,1.44012 0.14301,1.38158 2.1915,-0.32664 3.21401,0.35113 3.21401,2.13042 0,2.67619 2.38033,2.53862 4.32558,-0.25 l 1.56952,-2.25 0.0524,3.16821 c 0.10251,6.19169 2.32414,8.53188 3.40032,3.58179 0.95104,-4.37451 2.11868,-5.60043 4.27496,-4.48837 1.03244,0.53246 2.43967,0.76642 3.12717,0.51991 1.63393,-0.58587 1.60895,-2.92982 -0.038,-3.5618 -1.01405,-0.38913 -1.4208,-3.76539 -0.79328,-6.58475 0.0447,-0.20076 1.20425,0.37082 2.57682,1.27016 1.45413,0.95278 3.45466,1.39446 4.79376,1.05837 1.57459,-0.3952 2.88417,0.0707 4.1594,1.47984 3.26753,3.61058 4.87211,2.68191 4.11297,-2.38043 -0.55412,-3.69511 -0.35976,-4.60064 1.16228,-5.41521 2.95288,-1.58034 5.32469,0.3589 4.63803,3.79217 -0.44618,2.2309 -0.11754,3.12058 1.46568,3.9679 2.34683,1.25598 6.83107,1.45335 7.52461,0.33118 0.69805,-1.12948 -1.91961,-4.32889 -2.84186,-3.47343 -1.04414,0.96852 0.38567,-5.014 1.462,-6.11723 0.45701,-0.46842 2.11266,-0.15293 3.67924,0.7011 7.69095,4.1928 7.20658,4.0886 10.8748,2.33935 2.59186,-1.23597 3.47351,-2.28872 3.47351,-4.14758 0,-2.21542 0.32094,-2.42699 2.89933,-1.91131 2.34915,0.46983 3.0261,0.18044 3.56739,-1.525 0.96009,-3.02499 2.44331,-2.59426 2.22154,0.64513 -0.14967,2.18636 0.19602,2.6839 1.68664,2.42748 1.63417,-0.28111 1.79072,0.12616 1.21931,3.17202 -0.38154,2.03377 -0.22824,3.75865 0.36672,4.12636 1.15979,0.71678 6.03907,-3.76965 6.03907,-5.55285 0,-0.87942 0.35472,-0.87351 1.43608,0.0239 1.76291,1.46305 5.56401,-0.23266 5.56401,-2.48209 0,-0.80565 0.87961,-1.46482 1.95469,-1.46482 1.44336,0 2.12699,0.91845 2.61336,3.51105 0.92259,4.91782 2.16747,5.22799 5.41878,1.35011 1.54994,-1.84864 3.08566,-3.09997 3.41271,-2.78074 0.74074,0.72304 -2.25654,9.71316 -3.49314,10.47743 -0.49852,0.3081 -0.9064,1.38548 -0.9064,2.39418 0,1.90596 1.86396,3.04797 4.9748,3.04797 0.99617,0 2.07024,0.675 2.38683,1.5 0.74741,1.94772 5.63837,1.99891 5.63837,0.059 0,-0.79254 -0.47776,-1.73626 -1.06168,-2.09714 -1.69493,-1.04752 -3.13247,-5.66773 -2.08835,-6.71185 0.56573,-0.56573 1.18494,-0.50255 1.59618,0.16284 0.36954,0.59792 1.58982,1.08713 2.71174,1.08713 1.12192,0 3.58645,0.73391 5.47674,1.63091 4.56517,2.16632 5.30572,1.08504 2.61776,-3.82221 -2.47349,-4.51566 -2.21836,-5.80868 1.14611,-5.80868 1.46358,0 2.68951,-0.89774 3.42235,-2.50616 1.0662,-2.34005 1.26624,-2.3997 3.01793,-0.89985 1.60543,1.37461 1.74257,2.23214 0.9507,5.94497 -0.65021,3.04864 -0.57191,4.99905 0.26335,6.55975 1.06703,1.99377 1.28492,2.04914 2.12891,0.54101 0.51713,-0.92404 0.66061,-2.56108 0.31885,-3.63787 -0.47013,-1.48123 0.16722,-2.43737 2.61836,-3.92799 3.74269,-2.27607 4.88105,-1.9297 4.88105,1.48516 0,1.50309 0.57634,2.44098 1.5,2.44098 0.825,0 1.5,-0.675 1.5,-1.5 0,-0.825 0.86786,-1.5 1.92857,-1.5 2.00724,0 5.07143,2.45998 5.07143,4.07143 0,1.89477 2.08122,0.84443 3.20232,-1.61614 l 1.15945,-2.5447 2.49321,2.68882 2.49321,2.68881 1.66255,-2.05315 c 0.91439,-1.12923 2.74434,-2.20658 4.06653,-2.39411 1.4347,-0.20348 2.93378,-1.44976 3.71793,-3.09096 0.74717,-1.56379 2.12764,-2.75 3.20035,-2.75 1.03753,0 2.16528,-0.45122 2.50612,-1.0027 0.40758,-0.65948 1.24546,-0.66782 2.44778,-0.0243 1.51158,0.80897 2.04383,0.45748 3.07425,-2.03017 1.16598,-2.81491 1.36159,-2.90408 3.03957,-1.38552 1.11994,1.01353 2.57173,1.37597 3.86606,0.96517 1.88621,-0.59866 1.98261,-0.42101 1.07166,1.97497 -0.55054,1.44804 -1.00099,2.7835 -1.00099,2.9677 0,0.85291 7.64834,0.22399 8.80019,-0.72363 0.94633,-0.77854 1.71188,-0.65798 2.81286,0.443 1.35022,1.35023 1.22766,1.85139 -1.14134,4.66678 -1.45971,1.73477 -2.95049,2.98586 -3.31286,2.78022 -0.36237,-0.20564 -1.70464,0.62772 -2.98284,1.8519 -2.15704,2.06592 -2.20579,2.344 -0.67857,3.87122 0.90498,0.90497 3.22042,1.64541 5.14542,1.64541 4.72206,0 6.9992,2.29541 5.51301,5.55724 -0.75257,1.65172 -0.79523,3.26112 -0.13263,5.0039 1.2096,3.18149 1.27658,9.13553 0.11087,9.85598 -0.47624,0.29433 -0.64829,1.67347 -0.38232,3.06476 0.26596,1.39129 -0.0506,3.17326 -0.70351,3.95994 -0.88037,1.06079 -0.90169,1.96358 -0.0825,3.49426 0.81384,1.52067 0.79828,2.65615 -0.0591,4.31392 -1.74972,3.38312 -4.06788,5.7684 -5.02887,5.17448 -0.4702,-0.2906 -0.61458,0.0979 -0.32085,0.86337 0.29373,0.76545 -0.16142,1.96892 -1.01145,2.67438 -0.85003,0.70546 -1.54551,1.67756 -1.54551,2.16021 0,1.76349 2.61978,0.80811 5.13453,-1.87244 1.41894,-1.5125 3.81846,-3.85718 5.33225,-5.21041 2.40279,-2.14793 2.89718,-2.26706 3.89278,-0.93803 2.15943,2.88265 4.204,2.89872 4.17088,0.0328 -0.0244,-2.10762 0.49329,-2.69511 2.58886,-2.93817 3.31302,-0.38427 4.41532,2.8693 2.33502,6.89214 -1.3114,2.53598 -1.27618,2.83343 0.39842,3.36493 1.48627,0.47172 1.80421,1.51476 1.66528,5.46316 -0.1941,5.5166 -2.06515,8.08358 -5.89203,8.08358 -2.41282,0 -4.41469,2.33337 -6.21676,7.24623 -0.55728,1.51929 -1.53227,1.66336 -7.50195,1.10853 -4.84855,-0.45062 -7.30431,-0.27014 -8.37109,0.61521 -0.83032,0.6891 -3.77558,1.27214 -6.54503,1.29564 -4.69,0.0398 -5.27926,-0.2422 -8.59119,-4.11144 -3.90062,-4.55699 -5.14421,-5.04823 -6.08623,-2.40417 -0.86966,2.44098 -5.44914,6.17085 -7.62948,6.21404 -0.99866,0.0198 -2.66332,0.48957 -3.69925,1.04398 -2.53769,1.35814 -8.4119,-1.45476 -9.91159,-4.74622 -1.08283,-2.37656 -1.4189,-2.45055 -9.84725,-2.1681 -7.64303,0.25613 -9.19164,0.008 -12.47617,-1.99941 -2.0625,-1.26051 -3.75,-2.70704 -3.75,-3.2145 0,-2.35993 -4.69661,-3.04737 -10.0197,-1.46658 -2.93881,0.87273 -8.29913,1.59342 -11.9118,1.60153 -8.30013,0.0186 -11.40935,1.507 -12.0685,5.77712 -0.79736,5.16545 -8.02724,11.53764 -27.55449,24.28568 -2.27164,1.48295 -15.44551,13.74851 -15.44551,14.38052 0,0.16054 1.35937,0.56377 3.02083,0.89606 2.31439,0.46287 3.54215,0.0829 5.25,-1.625 l 2.22917,-2.22917 0.31598,2.22279 c 0.27033,1.90158 0.7761,2.1462 3.5,1.69282 3.36943,-0.56082 3.78334,-0.56628 10.37658,-0.13687 4.86182,0.31664 4.44678,0.002 7.19668,5.45526 1.37992,2.73646 3.01501,4.45485 4.62292,4.85841 2.71408,0.68119 2.93021,1.15967 1.52642,3.37941 -0.81014,1.28103 -1.55352,1.291 -5.73469,0.077 -7.04804,-2.04646 -13.76411,-2.40768 -20.68104,-1.11231 -9.92374,1.85846 -25.04033,6.87217 -27.42866,9.09723 -5.0744,4.72752 -11.20944,20.87452 -11.18054,29.42639 0.0229,6.7703 0.85901,8.60996 3.60047,7.9219 2.82966,-0.7102 2.90407,-0.27627 0.7361,4.29239 -1.4445,3.04407 -1.50134,4.49376 -0.4568,11.65113 0.65614,4.49596 1.28604,11.90618 1.39978,16.46716 0.18475,7.40854 0.42003,8.33448 2.2068,8.68477 1.1,0.21566 8.75,1.15327 17,2.08357 8.25,0.93031 15.675,2.07097 16.5,2.53482 0.82659,0.46473 -27.81979,0.85699 -63.80902,0.87375 -37.38982,0.0174 -65.07635,-0.34604 -64.76476,-0.85019 z m 55.9977,-67.76282 c -1.47919,-1.17888 -4.47099,-2.4283 -6.64843,-2.77649 -2.17746,-0.34819 -5.67558,-1.5088 -7.77362,-2.57914 -3.1977,-1.63134 -4.8423,-1.82235 -10.16926,-1.18104 -7.2004,0.86685 -13.89195,-0.17458 -15.1103,-2.35166 -1.00464,-1.79518 -3.7223,-1.94762 -3.7223,-0.2088 0,0.6927 0.91746,1.83242 2.0388,2.53271 1.12134,0.70029 1.72682,1.77806 1.34549,2.39506 -0.43514,0.70408 -0.23995,0.8416 0.52421,0.36933 0.6794,-0.41989 2.03467,-0.013 3.06632,0.92066 2.47751,2.24212 19.26956,5.02279 30.33186,5.02279 h 8.80667 z m 10.57608,-1.98081 c 0,-2.26265 -10.55436,-12.37577 -12.91573,-12.37577 -1.35428,0 -2.26057,0.85426 -2.68025,2.52638 -0.34874,1.38951 -1.49491,2.98708 -2.54705,3.55017 -2.7924,1.49445 -1.53849,2.57125 3.87059,3.3239 2.62484,0.36523 6.54172,1.75056 8.70418,3.0785 4.07595,2.50299 5.56826,2.47533 5.56826,-0.10318 z m 55,-24.37577 c -0.825,-0.53316 -1.95,-0.96937 -2.5,-0.96937 -0.55,0 -0.325,0.43621 0.5,0.96937 0.825,0.53316 1.95,0.96937 2.5,0.96937 0.55,0 0.325,-0.43621 -0.5,-0.96937 z m 21,-70.01841 c 0,-1.44651 -5.18876,-11.32335 -6.44907,-12.27584 -0.57801,-0.43684 -3.18817,-0.61542 -5.80036,-0.39685 -5.30205,0.44365 -7.8541,-1.14816 -5.27391,-3.28953 2.0813,-1.72732 0.85924,-3.26951 -1.5634,-1.97295 -1.08095,0.57851 -4.54114,0.91723 -7.68931,0.75271 -5.36112,-0.28017 -5.70313,-0.44761 -5.39545,-2.64143 0.28545,-2.03543 0.0234,-2.24998 -2,-1.63761 -4.43109,1.34103 -0.37567,-1.52038 4.75782,-3.35701 4.64926,-1.66338 7.43446,-5.16308 4.10898,-5.16308 -0.79825,0 -2.06874,-0.91308 -2.82333,-2.02906 -0.96891,-1.43297 -2.92734,-2.20988 -6.66636,-2.64455 -3.67942,-0.42774 -6.3904,-1.48649 -8.8875,-3.47094 -4.12422,-3.27752 -6.15013,-3.60103 -6.92249,-1.10545 -0.29789,0.9625 -1.03572,2.65 -1.63963,3.75 -1.35929,2.47591 -1.75637,7.61827 -0.52972,6.86016 0.49487,-0.30585 1.6589,0.0946 2.58674,0.88988 0.92785,0.79528 2.4847,1.72915 3.45967,2.07528 2.74469,0.97439 3.18596,3.54512 1.02571,5.97556 -1.07504,1.20952 -1.91947,3.26092 -1.87651,4.55868 0.0684,2.06462 0.95308,2.58701 7.07812,4.17935 3.85,1.00088 12.85,3.82608 20,6.27821 17.34991,5.95025 20.5,6.667 20.5,4.66447 z M 200.73919,116.69309 c 1.4599,-1.02358 6.80191,-4.00474 11.87113,-6.6248 8.63244,-4.46174 12.3284,-7.6988 12.24996,-10.728973 -0.0629,-2.4286 -3.54694,-5.483858 -7.00468,-6.142568 -1.90412,-0.36273 -5.70718,-1.74696 -8.45123,-3.07605 l -4.98919,-2.41652 -1.95737,3.42498 c -2.14471,3.75279 -4.51041,4.33596 -7.09693,1.74945 -1.29363,-1.29363 -2.07416,-1.42659 -3.42445,-0.58332 -3.12608,1.95228 -10.63958,2.60616 -12.09114,1.05226 -0.74613,-0.79874 -2.50834,-1.21856 -4.12125,-0.98184 -2.18805,0.32114 -3.49421,-0.31058 -5.84465,-2.82674 -2.74509,-2.93863 -3.4426,-3.19345 -7.49194,-2.73703 -8.27235,0.93241 -12.33128,6.0058 -7.24389,9.0544 11.07837,6.638661 14.71109,8.505631 17.62492,9.057991 6.25049,1.18489 15.59836,5.91983 19.33495,9.79367 4.23024,4.38562 4.96956,4.55556 8.63576,1.98509 z M 150.98334,97.721897 c -0.53932,-1.007738 -1.67539,-2.408878 -2.52459,-3.113648 -1.3896,-1.15327 -1.38092,-1.55747 0.0868,-4.04217 1.52834,-2.58727 1.51196,-2.92714 -0.2606,-5.40847 -1.60088,-2.241 -2.35225,-2.53566 -4.89142,-1.9182 -2.64176,0.64241 -8.69404,1.10064 -20.5,1.5521 -3.58851,0.13722 -11.74052,-1.69503 -15.75,-3.53999 -1.3937,-0.64133 -2.24997,-1.92244 -2.24997,-3.36636 0,-1.28206 -0.4132,-2.33102 -0.91821,-2.33102 -1.98805,0 -4.081791,1.27855 -4.081791,2.49255 0,1.7381 14.542391,14.36232 17.295161,15.0139 4.07532,0.96462 12.16182,2.61927 17.70484,3.62274 3.025,0.547618 7.3,1.363538 9.5,1.813148 6.85054,1.40004 7.70016,1.30017 6.58978,-0.77458 z M 96.323529,91.667449 c 0.92177,-1.49146 -1.77294,-2.98325 -8.02222,-4.44111 -3.28008,-0.76519 -7.30117,-2.0615 -8.93576,-2.8807 -1.978463,-0.99152 -4.810626,-1.34167 -8.47199,-1.0474 -8.777854,0.70547 -14.343431,0.25507 -16.061534,-1.29979 -0.877771,-0.79437 -2.123014,-1.44431 -2.767207,-1.44431 -2.065041,0 -1.254891,1.90068 1.578741,3.70385 1.5125,0.96247 2.975,2.00845 3.25,2.32439 1.338379,1.53763 10.906697,4.26952 17.316725,4.94417 10.411855,1.09583 21.479485,1.16635 22.113245,0.1409 z m 9.570031,-2.58783 c 0,-0.81099 -2.68564,-4.21917 -5.968081,-7.57374 -4.42539,-4.52263 -6.55529,-6.01553 -8.23978,-5.77547 -1.33828,0.19071 -2.41554,1.14552 -2.62175,2.32373 -0.19253,1.1 -1.32213,2.7632 -2.51022,3.69601 -2.7571,2.16467 -1.52169,3.45768 4.08784,4.27844 2.33641,0.34185 6.16141,1.49007 8.5,2.55159 5.134491,2.33061 6.751991,2.45026 6.751991,0.49944 z m 122.66227,-44.77548 c -0.27741,-0.6875 -0.50439,-0.125 -0.50439,1.25 0,1.375 0.22698,1.9375 0.50439,1.25 0.27741,-0.6875 0.27741,-1.8125 0,-2.5 z"
         style="fill:#c66900;fill-opacity: 0.75" />
    </g>
  </g>
</svg>
